<?xml version="1.0" standalone="no"?>
<!DOCTYPE svg PUBLIC "-//W3C//DTD SVG 1.1//EN"
  "http://www.w3.org/Graphics/SVG/1.1/DTD/svg11.dtd">
<svg width="106.39999771118164mm" height="64.19999933242798mm" viewBox="-82.0999984741211 -57.79999923706055 106.39999771118164 64.19999933242798" xmlns="http://www.w3.org/2000/svg" version="1.1">
	<title>svgOutput</title>
	<desc>made with tinkercad</desc>
<path d="M -81.0999984741211 -53.79800033569336 L -81.09993743896484 -53.79800033569336 L -81.0999984741211 -53.79838180541992 L -81.0999984741211 -53.85758590698242 L -80.947998046875 -54.75699996948242 L -80.49099731445312 -55.595001220703125 L -79.77999877929688 -56.26100158691406 L -78.88400268554688 -56.6879997253418 L -78.12742614746094 -56.79999923706055 L -77.90299987792969 -56.79999923706055 L -74.9020004272461 -56.79999923706055 L 17.101999282836914 -56.79999923706055 L 20.101999282836914 -56.79999923706055 L 20.297000885009766 -56.79999923706055 L 20.297000885009766 -56.799766540527344 L 20.298381805419922 -56.79999923706055 L 20.357585906982422 -56.79999923706055 L 21.256999969482422 -56.64799880981445 L 22.094999313354492 -56.191001892089844 L 22.76099967956543 -55.47999954223633 L 23.187999725341797 -54.58399963378906 L 23.299999237060547 -53.82742691040039 L 23.299999237060547 -53.590999603271484 L 23.299999237060547 2.203000068664551 L 23.299999237060547 2.3970000743865967 L 23.299766540527344 2.3970000743865967 L 23.299999237060547 2.3983821868896484 L 23.299999237060547 2.4575860500335693 L 23.148000717163086 3.3570001125335693 L 22.69099998474121 4.195000171661377 L 21.979999542236328 4.861000061035156 L 21.083999633789062 5.288000106811523 L 20.479999542236328 5.377413749694824 L 20.327428817749023 5.400000095367432 L 20.090999603271484 5.400000095367432 L 17.101999282836914 5.400000095367432 L -77.90299987792969 5.400000095367432 L -78.09700012207031 5.400000095367432 L -78.09700012207031 5.399766445159912 L -78.09838104248047 5.400000095367432 L -78.15758514404297 5.400000095367432 L -79.05699920654297 5.248000144958496 L -79.8949966430664 4.790999889373779 L -80.56099700927734 4.079999923706055 L -80.98799896240234 3.184000015258789 L -81.0999984741211 2.4274284839630127 L -81.0999984741211 2.190999984741211 L -81.0999984741211 -53.79800033569336 M -76.86599731445312 2.128999948501587 L -76.4020004272461 2.203000068664551 L -75.93900299072266 2.128999948501587 L -75.52100372314453 1.9160000085830688 L -75.18900299072266 1.5839999914169312 L -74.97599792480469 1.1660000085830688 L -74.9020004272461 0.7020000219345094 L -74.97599792480469 0.23899999260902416 L -75.09778594970703 1.1102230246251565e-16 L -75.18900299072266 -0.17900000512599934 L -75.52100372314453 -0.5109999775886535 L -75.93900299072266 -0.7239999771118163 L -76.4020004272461 -0.7979999780654906 L -76.86599731445312 -0.7239999771118163 L -77.28399658203125 -0.5109999775886535 L -77.61599731445312 -0.17900000512599934 L -77.70721435546875 1.1102230246251565e-16 L -77.8290023803711 0.23899999260902416 L -77.90299987792969 0.7020000219345094 L -77.8290023803711 1.1660000085830688 L -77.61599731445312 1.5839999914169312 L -77.28399658203125 1.9160000085830688 L -76.86599731445312 2.128999948501587 M 17.176000595092773 -52.566001892089844 L 17.101999282836914 -52.10200119018555 L 17.176000595092773 -51.638999938964844 L 17.388999938964844 -51.22100067138672 L 17.72100067138672 -50.888999938964844 L 18.138999938964844 -50.67599868774414 L 18.43199920654297 -50.62916946411133 L 18.601999282836914 -50.60200119018555 L 19.06599998474121 -50.67599868774414 L 19.483999252319336 -50.888999938964844 L 19.81599998474121 -51.22100067138672 L 20.02899932861328 -51.638999938964844 L 20.101999282836914 -52.10200119018555 L 20.02899932861328 -52.566001892089844 L 19.81599998474121 -52.98400115966797 L 19.552000045776367 -53.24800109863281 L 19.483999252319336 -53.316001892089844 L 19.06599998474121 -53.52899932861328 L 18.601999282836914 -53.60200119018555 L 18.138999938964844 -53.52899932861328 L 17.72100067138672 -53.316001892089844 L 17.652999877929688 -53.24800109863281 L 17.388999938964844 -52.98400115966797 L 17.176000595092773 -52.566001892089844 M 19.06599998474121 -0.7239999771118163 L 18.601999282836914 -0.7979999780654906 L 18.138999938964844 -0.7239999771118163 L 17.72100067138672 -0.5109999775886535 L 17.388999938964844 -0.17900000512599934 L 17.297786712646484 1.1102230246251565e-16 L 17.176000595092773 0.23899999260902416 L 17.101999282836914 0.7020000219345094 L 17.176000595092773 1.1660000085830688 L 17.388999938964844 1.5839999914169312 L 17.72100067138672 1.9160000085830688 L 18.138999938964844 2.128999948501587 L 18.601999282836914 2.203000068664551 L 19.06599998474121 2.128999948501587 L 19.483999252319336 1.9160000085830688 L 19.81599998474121 1.5839999914169312 L 20.02899932861328 1.1660000085830688 L 20.101999282836914 0.7020000219345094 L 20.02899932861328 0.23899999260902416 L 19.90721321105957 1.1102230246251565e-16 L 19.81599998474121 -0.17900000512599934 L 19.483999252319336 -0.5109999775886535 L 19.06599998474121 -0.7239999771118163 M -75.18900299072266 -52.98400115966797 L -75.4530029296875 -53.24800109863281 L -75.52100372314453 -53.316001892089844 L -75.93900299072266 -53.52899932861328 L -76.4020004272461 -53.60200119018555 L -76.86599731445312 -53.52899932861328 L -77.28399658203125 -53.316001892089844 L -77.35199737548828 -53.24800109863281 L -77.61599731445312 -52.98400115966797 L -77.8239974975586 -52.57581329345703 L -77.8290023803711 -52.566001892089844 L -77.90299987792969 -52.10200119018555 L -77.8290023803711 -51.638999938964844 L -77.8239974975586 -51.629188537597656 L -77.61599731445312 -51.22100067138672 L -77.28399658203125 -50.888999938964844 L -76.86599731445312 -50.67599868774414 L -76.4020004272461 -50.60200119018555 L -75.93900299072266 -50.67599868774414 L -75.52100372314453 -50.888999938964844 L -75.18900299072266 -51.22100067138672 L -74.97599792480469 -51.638999938964844 L -74.9020004272461 -52.10200119018555 L -74.97599792480469 -52.566001892089844 L -75.18900299072266 -52.98400115966797 z" fill="none" stroke="rgb(255,0,0)" stroke-width="0.001mm" />
</svg>