<?xml version="1.0" standalone="no"?>
<!DOCTYPE svg PUBLIC "-//W3C//DTD SVG 1.1//EN"
  "http://www.w3.org/Graphics/SVG/1.1/DTD/svg11.dtd">
<svg width="106.39999771118164mm" height="64.20000171661377mm" viewBox="-82.0999984741211 9.199999809265137 106.39999771118164 64.20000171661377" xmlns="http://www.w3.org/2000/svg" version="1.1">
	<title>svgOutput</title>
	<desc>made with tinkercad</desc>
<path d="M 23.299999237060547 69.39700317382812 L 23.299766540527344 69.39700317382812 L 23.299999237060547 69.39838409423828 L 23.299999237060547 69.45758819580078 L 23.148000717163086 70.35700225830078 L 22.69099998474121 71.19499969482422 L 21.979999542236328 71.86100006103516 L 21.083999633789062 72.28800201416016 L 20.479999542236328 72.37741088867188 L 20.327428817749023 72.4000015258789 L 20.090999603271484 72.4000015258789 L 17.101999282836914 72.4000015258789 L 16.75200080871582 72.4000015258789 L -74.5530014038086 72.4000015258789 L -77.90299987792969 72.4000015258789 L -78.09700012207031 72.4000015258789 L -78.09700012207031 72.39976501464844 L -78.09838104248047 72.4000015258789 L -78.15758514404297 72.4000015258789 L -79.05699920654297 72.24800109863281 L -79.8949966430664 71.79100036621094 L -80.56099700927734 71.08000183105469 L -80.98799896240234 70.18399810791016 L -81.06971740722656 69.63200378417969 L -81.0999984741211 69.42742919921875 L -81.0999984741211 69.19100189208984 L -81.0999984741211 13.20199966430664 L -81.09993743896484 13.20199966430664 L -81.0999984741211 13.201618194580078 L -81.0999984741211 13.142414093017578 L -80.947998046875 12.243000030517578 L -80.49099731445312 11.404999732971191 L -79.77999877929688 10.73900032043457 L -78.88400268554688 10.312000274658203 L -78.12742614746094 10.199999809265137 L -77.90299987792969 10.199999809265137 L -74.9020004272461 10.199999809265137 L -74.5530014038086 10.199999809265137 L 16.75200080871582 10.199999809265137 L 17.101999282836914 10.199999809265137 L 20.101999282836914 10.199999809265137 L 20.29800033569336 10.199999809265137 L 20.29800033569336 10.200064659118652 L 20.298381805419922 10.199999809265137 L 20.357585906982422 10.199999809265137 L 21.256999969482422 10.35200023651123 L 22.094999313354492 10.809000015258789 L 22.76099967956543 11.520000457763672 L 23.12700080871582 12.288000106811523 L 23.187999725341797 12.416000366210938 L 23.299999237060547 13.172571182250977 L 23.299999237060547 13.409000396728516 L 23.299999237060547 69.2030029296875 L 23.299999237060547 69.39700317382812 M -76.86599731445312 16.323999404907227 L -76.48978424072266 16.384000778198242 L -76.4020004272461 16.398000717163086 L -76.31440734863281 16.384000778198242 L -75.93900299072266 16.323999404907227 L -75.52100372314453 16.111000061035156 L -75.18900299072266 15.779000282287598 L -74.97599792480469 15.361000061035156 L -74.9020004272461 14.89799976348877 L -74.97599792480469 14.434000015258789 L -75.02593994140625 14.336000442504883 L -75.18900299072266 14.015999794006348 L -75.52100372314453 13.684000015258789 L -75.93900299072266 13.470999717712402 L -76.4020004272461 13.39799976348877 L -76.86599731445312 13.470999717712402 L -77.28399658203125 13.684000015258789 L -77.61599731445312 14.015999794006348 L -77.77906036376953 14.336000442504883 L -77.8239974975586 14.424187660217285 L -77.8290023803711 14.434000015258789 L -77.90299987792969 14.89799976348877 L -77.8290023803711 15.361000061035156 L -77.8239974975586 15.37081241607666 L -77.61599731445312 15.779000282287598 L -77.28399658203125 16.111000061035156 L -76.86599731445312 16.323999404907227 M 19.06599998474121 13.470999717712402 L 18.601999282836914 13.39799976348877 L 18.43199920654297 13.424803733825684 L 18.138999938964844 13.470999717712402 L 17.72100067138672 13.684000015258789 L 17.388999938964844 14.015999794006348 L 17.176000595092773 14.434000015258789 L 17.101999282836914 14.89799976348877 L 17.176000595092773 15.361000061035156 L 17.388999938964844 15.779000282287598 L 17.72100067138672 16.111000061035156 L 18.138999938964844 16.323999404907227 L 18.43199920654297 16.37082862854004 L 18.514406204223633 16.384000778198242 L 18.601999282836914 16.398000717163086 L 18.689783096313477 16.384000778198242 L 19.06599998474121 16.323999404907227 L 19.483999252319336 16.111000061035156 L 19.81599998474121 15.779000282287598 L 20.02899932861328 15.361000061035156 L 20.101999282836914 14.89799976348877 L 20.02899932861328 14.434000015258789 L 19.81599998474121 14.015999794006348 L 19.483999252319336 13.684000015258789 L 19.06599998474121 13.470999717712402 M -76.86599731445312 69.12899780273438 L -76.4020004272461 69.2030029296875 L -75.93900299072266 69.12899780273438 L -75.52100372314453 68.91600036621094 L -75.18900299072266 68.58399963378906 L -74.97599792480469 68.16600036621094 L -74.9020004272461 67.7020034790039 L -74.92086029052734 67.58399963378906 L -74.97599792480469 67.23899841308594 L -75.18900299072266 66.82099914550781 L -75.52100372314453 66.48899841308594 L -75.93900299072266 66.2760009765625 L -76.4020004272461 66.2020034790039 L -76.86599731445312 66.2760009765625 L -77.28399658203125 66.48899841308594 L -77.61599731445312 66.82099914550781 L -77.8290023803711 67.23899841308594 L -77.88414001464844 67.58399963378906 L -77.90299987792969 67.7020034790039 L -77.8290023803711 68.16600036621094 L -77.61599731445312 68.58399963378906 L -77.28399658203125 68.91600036621094 L -76.86599731445312 69.12899780273438 M 20.02899932861328 68.16600036621094 L 20.101999282836914 67.7020034790039 L 20.08339500427246 67.58399963378906 L 20.02899932861328 67.23899841308594 L 19.81599998474121 66.82099914550781 L 19.483999252319336 66.48899841308594 L 19.06599998474121 66.2760009765625 L 18.601999282836914 66.2020034790039 L 18.138999938964844 66.2760009765625 L 17.72100067138672 66.48899841308594 L 17.388999938964844 66.82099914550781 L 17.176000595092773 67.23899841308594 L 17.120859146118164 67.58399963378906 L 17.101999282836914 67.7020034790039 L 17.176000595092773 68.16600036621094 L 17.388999938964844 68.58399963378906 L 17.72100067138672 68.91600036621094 L 18.138999938964844 69.12899780273438 L 18.601999282836914 69.2030029296875 L 19.06599998474121 69.12899780273438 L 19.483999252319336 68.91600036621094 L 19.81599998474121 68.58399963378906 L 20.02899932861328 68.16600036621094 M 16.75200080871582 16.29800033569336 L -74.5530014038086 16.29800033569336 L -74.5530014038086 66.3030014038086 L 16.75200080871582 66.3030014038086 L 16.75200080871582 16.29800033569336 z" fill="none" stroke="rgb(255,0,0)" stroke-width="0.001mm" />
</svg>