G04 Layer: BottomSilkLayer*
G04 EasyEDA v6.4.14, 2021-02-05T01:12:07+07:00*
G04 a11fb1351f8b4d80ab88c56e364234f4,ed1066999ab64682bb259e5b7afb0417,10*
G04 Gerber Generator version 0.2*
G04 Scale: 100 percent, Rotated: No, Reflected: No *
G04 Dimensions in millimeters *
G04 leading zeros omitted , absolute positions ,4 integer and 5 decimal *
%FSLAX45Y45*%
%MOMM*%

%ADD10C,0.2540*%
%ADD17C,0.1524*%
%ADD18C,0.2997*%
%ADD19C,0.1270*%

%LPD*%
G36*
X8282431Y2321306D02*
G01*
X8258809Y2320493D01*
X8246973Y2319629D01*
X8223453Y2317140D01*
X8211718Y2315464D01*
X8188350Y2311247D01*
X8165185Y2305913D01*
X8147964Y2301138D01*
X8136534Y2297582D01*
X8125206Y2293772D01*
X8113928Y2289708D01*
X8097215Y2283002D01*
X8086140Y2278227D01*
X8064296Y2267762D01*
X8053527Y2262073D01*
X8042859Y2256129D01*
X8032343Y2249881D01*
X8021929Y2243378D01*
X8011617Y2236571D01*
X8001457Y2229510D01*
X7991398Y2222093D01*
X7981594Y2214473D01*
X7971993Y2206650D01*
X7962696Y2198624D01*
X7953603Y2190343D01*
X7944764Y2181860D01*
X7936179Y2173173D01*
X7927848Y2164283D01*
X7919770Y2155190D01*
X7911947Y2145893D01*
X7904378Y2136394D01*
X7897063Y2126691D01*
X7890002Y2116785D01*
X7883194Y2106726D01*
X7876692Y2096465D01*
X7870444Y2086000D01*
X7864449Y2075383D01*
X7858709Y2064562D01*
X7853273Y2053589D01*
X7848092Y2042464D01*
X7843215Y2031136D01*
X7838592Y2019604D01*
X7834223Y2007971D01*
X7826400Y1984146D01*
X7822946Y1972005D01*
X7820355Y1961845D01*
X7818018Y1951075D01*
X7815986Y1939747D01*
X7814208Y1928012D01*
X7812684Y1915922D01*
X7811414Y1903526D01*
X7810449Y1890928D01*
X7809534Y1871827D01*
X7809230Y1859127D01*
X7809230Y1846478D01*
X7809839Y1827834D01*
X7810550Y1815744D01*
X7811617Y1804009D01*
X7812938Y1792732D01*
X7814614Y1782013D01*
X7816951Y1769364D01*
X7819644Y1756867D01*
X7822692Y1744522D01*
X7826044Y1732280D01*
X7829753Y1720138D01*
X7833817Y1708150D01*
X7838186Y1696262D01*
X7842859Y1684528D01*
X7847888Y1672945D01*
X7853273Y1661464D01*
X7858963Y1650136D01*
X7864957Y1638960D01*
X7871307Y1627886D01*
X7877962Y1616964D01*
X7888630Y1600860D01*
X7896098Y1590294D01*
X7903921Y1579880D01*
X7912049Y1569567D01*
X7920532Y1559458D01*
X7932978Y1545437D01*
X7939989Y1538071D01*
X7945120Y1533042D01*
X7947659Y1531213D01*
X7949590Y1532229D01*
X7953146Y1534871D01*
X7963204Y1543710D01*
X7976514Y1556258D01*
X7958632Y1574749D01*
X7950504Y1583690D01*
X7942630Y1593037D01*
X7934959Y1602740D01*
X7927543Y1612747D01*
X7920380Y1623060D01*
X7913471Y1633626D01*
X7906816Y1644446D01*
X7900466Y1655521D01*
X7891475Y1672488D01*
X7885887Y1684020D01*
X7880654Y1695653D01*
X7875727Y1707438D01*
X7871206Y1719325D01*
X7866989Y1731264D01*
X7863179Y1743252D01*
X7859775Y1755241D01*
X7856728Y1767230D01*
X7854137Y1779219D01*
X7851952Y1791157D01*
X7850225Y1803298D01*
X7848904Y1815896D01*
X7848041Y1828901D01*
X7847533Y1842160D01*
X7847482Y1855622D01*
X7847838Y1869287D01*
X7848600Y1883054D01*
X7849717Y1896821D01*
X7851292Y1910588D01*
X7853172Y1924253D01*
X7855458Y1937715D01*
X7858099Y1950974D01*
X7861147Y1963877D01*
X7864500Y1976475D01*
X7868208Y1988616D01*
X7872272Y2000250D01*
X7876540Y2011070D01*
X7881518Y2022348D01*
X7887055Y2034032D01*
X7893100Y2045919D01*
X7899552Y2057857D01*
X7906308Y2069693D01*
X7913319Y2081326D01*
X7920431Y2092604D01*
X7927644Y2103323D01*
X7934756Y2113432D01*
X7941767Y2122678D01*
X7948574Y2131009D01*
X7955076Y2138222D01*
X7961172Y2144217D01*
X7970012Y2152243D01*
X7963712Y2140356D01*
X7960969Y2133904D01*
X7959039Y2126081D01*
X7957820Y2117090D01*
X7957464Y2107234D01*
X7957870Y2095754D01*
X7958480Y2091182D01*
X7959445Y2087118D01*
X7960817Y2083358D01*
X7962696Y2079599D01*
X7965084Y2075688D01*
X7968132Y2071319D01*
X7971942Y2066493D01*
X7976057Y2062124D01*
X7980425Y2058162D01*
X7984998Y2054555D01*
X7989773Y2051405D01*
X7994751Y2048713D01*
X7999882Y2046376D01*
X8005114Y2044496D01*
X8010448Y2043023D01*
X8015884Y2041956D01*
X8021370Y2041347D01*
X8026908Y2041093D01*
X8032394Y2041296D01*
X8037880Y2041906D01*
X8043265Y2042972D01*
X8048650Y2044395D01*
X8053882Y2046274D01*
X8059013Y2048560D01*
X8063941Y2051304D01*
X8068767Y2054402D01*
X8073339Y2057958D01*
X8077657Y2061921D01*
X8081772Y2066289D01*
X8085581Y2071116D01*
X8088680Y2075789D01*
X8091373Y2080514D01*
X8093557Y2085289D01*
X8095335Y2090166D01*
X8096656Y2094992D01*
X8097570Y2099868D01*
X8098078Y2104745D01*
X8098231Y2109571D01*
X8097977Y2114346D01*
X8097316Y2119122D01*
X8096351Y2123795D01*
X8095081Y2128367D01*
X8093456Y2132838D01*
X8089290Y2141474D01*
X8086750Y2145538D01*
X8083956Y2149449D01*
X8080908Y2153208D01*
X8077657Y2156764D01*
X8074152Y2160117D01*
X8070443Y2163216D01*
X8062417Y2168702D01*
X8058099Y2171039D01*
X8053679Y2173071D01*
X8049107Y2174798D01*
X8044383Y2176221D01*
X8039506Y2177338D01*
X8034578Y2178050D01*
X8029549Y2178456D01*
X8024418Y2178405D01*
X8019237Y2177999D01*
X8014004Y2177186D01*
X8008721Y2175916D01*
X8003438Y2174189D01*
X7998155Y2172055D01*
X7982356Y2164892D01*
X8004556Y2184196D01*
X8013649Y2191562D01*
X8023250Y2198725D01*
X8033258Y2205685D01*
X8043672Y2212492D01*
X8054492Y2219045D01*
X8065617Y2225344D01*
X8077098Y2231440D01*
X8088833Y2237282D01*
X8100872Y2242820D01*
X8113115Y2248103D01*
X8125561Y2253030D01*
X8138210Y2257704D01*
X8150961Y2262022D01*
X8163864Y2266035D01*
X8176818Y2269642D01*
X8189823Y2272944D01*
X8202879Y2275789D01*
X8214258Y2277973D01*
X8224621Y2279497D01*
X8235696Y2280716D01*
X8247430Y2281682D01*
X8259673Y2282342D01*
X8272272Y2282748D01*
X8285124Y2282901D01*
X8298129Y2282748D01*
X8323834Y2281631D01*
X8348421Y2279396D01*
X8360003Y2277872D01*
X8370874Y2276094D01*
X8382253Y2273808D01*
X8394700Y2270912D01*
X8407095Y2267661D01*
X8419490Y2264003D01*
X8431784Y2260041D01*
X8443976Y2255723D01*
X8456066Y2251100D01*
X8468004Y2246122D01*
X8479739Y2240889D01*
X8497062Y2232456D01*
X8508288Y2226462D01*
X8519261Y2220264D01*
X8529980Y2213762D01*
X8540394Y2207056D01*
X8550452Y2200097D01*
X8560206Y2192934D01*
X8569553Y2185568D01*
X8586216Y2171496D01*
X8592921Y2166162D01*
X8597950Y2162556D01*
X8600541Y2161235D01*
X8602624Y2162149D01*
X8606078Y2164740D01*
X8610498Y2168550D01*
X8615426Y2173224D01*
X8622233Y2180234D01*
X8625027Y2184603D01*
X8624316Y2188108D01*
X8620556Y2192578D01*
X8615629Y2197150D01*
X8607348Y2204110D01*
X8596782Y2212543D01*
X8585149Y2221484D01*
X8575141Y2228850D01*
X8564981Y2235911D01*
X8554669Y2242718D01*
X8539022Y2252421D01*
X8528405Y2258517D01*
X8512352Y2267102D01*
X8501481Y2272487D01*
X8490508Y2277618D01*
X8479434Y2282444D01*
X8468309Y2286965D01*
X8457082Y2291232D01*
X8445804Y2295245D01*
X8434425Y2298954D01*
X8422995Y2302357D01*
X8399932Y2308352D01*
X8376666Y2313178D01*
X8364981Y2315210D01*
X8341461Y2318359D01*
X8323783Y2319985D01*
X8311997Y2320696D01*
X8300161Y2321153D01*
G37*
G36*
X8240014Y2247392D02*
G01*
X8233714Y2246833D01*
X8216950Y2244039D01*
X8199120Y2240432D01*
X8186674Y2237028D01*
X8181035Y2235047D01*
X8175650Y2232812D01*
X8170519Y2230374D01*
X8165592Y2227580D01*
X8160816Y2224532D01*
X8156092Y2221077D01*
X8151418Y2217318D01*
X8141868Y2208479D01*
X8130540Y2197252D01*
X8141258Y2181809D01*
X8146999Y2172512D01*
X8149539Y2167585D01*
X8153958Y2157323D01*
X8157464Y2146604D01*
X8158886Y2141067D01*
X8161020Y2129790D01*
X8162290Y2118309D01*
X8162594Y2106777D01*
X8161985Y2095347D01*
X8160410Y2084019D01*
X8157870Y2073046D01*
X8156295Y2067712D01*
X8152333Y2057400D01*
X8149996Y2052472D01*
X8147151Y2047189D01*
X8143951Y2042007D01*
X8140496Y2036927D01*
X8136737Y2031898D01*
X8132775Y2027072D01*
X8124088Y2017775D01*
X8114639Y2009190D01*
X8104631Y2001469D01*
X8099501Y1997964D01*
X8088985Y1991715D01*
X8078317Y1986686D01*
X8072983Y1984654D01*
X8067649Y1982978D01*
X8062417Y1981657D01*
X8046415Y1979168D01*
X8011363Y1974138D01*
X7998815Y1971649D01*
X7987080Y1968449D01*
X7976057Y1964486D01*
X7970774Y1962251D01*
X7965592Y1959762D01*
X7955534Y1954123D01*
X7945729Y1947519D01*
X7936026Y1939899D01*
X7926628Y1931466D01*
X7918196Y1922780D01*
X7910677Y1913788D01*
X7904073Y1904441D01*
X7898384Y1894789D01*
X7893608Y1884781D01*
X7889748Y1874418D01*
X7886801Y1863699D01*
X7884769Y1852625D01*
X7884058Y1846986D01*
X7883347Y1835353D01*
X7883550Y1823364D01*
X7884668Y1811020D01*
X7885582Y1804517D01*
X7886750Y1798167D01*
X7888173Y1791868D01*
X7889849Y1785721D01*
X7893913Y1773834D01*
X7896250Y1768043D01*
X7898841Y1762404D01*
X7904683Y1751584D01*
X7907934Y1746351D01*
X7911388Y1741322D01*
X7918958Y1731670D01*
X7927289Y1722678D01*
X7936433Y1714398D01*
X7946339Y1706829D01*
X7956956Y1700022D01*
X7962493Y1696872D01*
X7974177Y1691233D01*
X7986471Y1686407D01*
X7992872Y1684324D01*
X8001000Y1682597D01*
X8012480Y1681124D01*
X8025790Y1680108D01*
X8039404Y1679600D01*
X8051038Y1679702D01*
X8062823Y1680210D01*
X8074761Y1681124D01*
X8086801Y1682394D01*
X8098942Y1684121D01*
X8111185Y1686204D01*
X8123478Y1688693D01*
X8135823Y1691538D01*
X8148218Y1694789D01*
X8160562Y1698396D01*
X8172856Y1702358D01*
X8185099Y1706676D01*
X8197291Y1711350D01*
X8209381Y1716379D01*
X8221370Y1721713D01*
X8233206Y1727403D01*
X8244586Y1733296D01*
X8255762Y1739493D01*
X8266734Y1745996D01*
X8277453Y1752803D01*
X8287969Y1759915D01*
X8298281Y1767281D01*
X8308340Y1774901D01*
X8318144Y1782876D01*
X8327694Y1791055D01*
X8336991Y1799488D01*
X8346084Y1808175D01*
X8354872Y1817116D01*
X8363407Y1826310D01*
X8371636Y1835708D01*
X8379612Y1845310D01*
X8387283Y1855114D01*
X8394700Y1865172D01*
X8401812Y1875383D01*
X8408619Y1885848D01*
X8415121Y1896465D01*
X8421268Y1907235D01*
X8427161Y1918207D01*
X8432698Y1929333D01*
X8437930Y1940610D01*
X8442807Y1952040D01*
X8447379Y1963572D01*
X8451545Y1975307D01*
X8455406Y1987143D01*
X8458911Y1999081D01*
X8462060Y2011121D01*
X8464804Y2023313D01*
X8467191Y2035556D01*
X8468817Y2045970D01*
X8470188Y2057400D01*
X8471204Y2069642D01*
X8471966Y2082495D01*
X8472424Y2095754D01*
X8472474Y2122627D01*
X8471357Y2148535D01*
X8470341Y2160574D01*
X8469020Y2171801D01*
X8467445Y2181860D01*
X8462111Y2211578D01*
X8460384Y2212695D01*
X8448700Y2217674D01*
X8430717Y2224481D01*
X8412022Y2231034D01*
X8381847Y2240229D01*
X8343341Y2226208D01*
X8336483Y2223516D01*
X8331352Y2221230D01*
X8327796Y2219248D01*
X8325561Y2217420D01*
X8324443Y2215591D01*
X8324189Y2213660D01*
X8324646Y2211476D01*
X8329777Y2194306D01*
X8333740Y2179878D01*
X8336686Y2167229D01*
X8338667Y2155545D01*
X8339886Y2143810D01*
X8340445Y2131212D01*
X8340445Y2116785D01*
X8339277Y2080564D01*
X8338312Y2065426D01*
X8336940Y2053132D01*
X8334959Y2042261D01*
X8332216Y2031695D01*
X8328507Y2020062D01*
X8323935Y2007311D01*
X8319109Y1995068D01*
X8313928Y1983333D01*
X8308441Y1972056D01*
X8302548Y1961235D01*
X8296300Y1950770D01*
X8289594Y1940661D01*
X8282431Y1930806D01*
X8274862Y1921256D01*
X8266734Y1911908D01*
X8258098Y1902714D01*
X8248903Y1893620D01*
X8239759Y1885238D01*
X8230362Y1877212D01*
X8220760Y1869643D01*
X8210956Y1862480D01*
X8200948Y1855724D01*
X8190788Y1849374D01*
X8180425Y1843481D01*
X8169859Y1837994D01*
X8159191Y1832965D01*
X8148320Y1828342D01*
X8137347Y1824177D01*
X8126171Y1820468D01*
X8114944Y1817217D01*
X8103514Y1814372D01*
X8092033Y1812036D01*
X8080400Y1810105D01*
X8068716Y1808683D01*
X8056930Y1807718D01*
X8038541Y1806752D01*
X8032546Y1806702D01*
X8028178Y1807108D01*
X8024977Y1807921D01*
X8022539Y1809292D01*
X8020558Y1811223D01*
X8018576Y1813814D01*
X8015478Y1818792D01*
X8013547Y1823516D01*
X8012785Y1827987D01*
X8013141Y1832152D01*
X8014614Y1836013D01*
X8017205Y1839569D01*
X8020812Y1842770D01*
X8025536Y1845564D01*
X8031225Y1847951D01*
X8037931Y1849932D01*
X8045653Y1851456D01*
X8060181Y1853133D01*
X8071967Y1854809D01*
X8083753Y1857044D01*
X8095488Y1859838D01*
X8107172Y1863242D01*
X8118754Y1867103D01*
X8130235Y1871522D01*
X8141462Y1876399D01*
X8152536Y1881784D01*
X8163356Y1887575D01*
X8173872Y1893824D01*
X8184032Y1900478D01*
X8193887Y1907489D01*
X8203285Y1914906D01*
X8212328Y1922678D01*
X8220811Y1930755D01*
X8228838Y1939137D01*
X8236305Y1947824D01*
X8243620Y1957324D01*
X8250732Y1967484D01*
X8257336Y1977847D01*
X8263381Y1988413D01*
X8268919Y1999132D01*
X8273897Y2010054D01*
X8278368Y2021078D01*
X8282279Y2032254D01*
X8285632Y2043582D01*
X8288477Y2054961D01*
X8290763Y2066442D01*
X8292541Y2077974D01*
X8293709Y2089556D01*
X8294370Y2101240D01*
X8294471Y2112873D01*
X8294065Y2124557D01*
X8293049Y2136241D01*
X8291474Y2147925D01*
X8289391Y2159558D01*
X8286750Y2171141D01*
X8283498Y2182672D01*
X8279739Y2194153D01*
X8275370Y2205482D01*
X8270494Y2216759D01*
X8264550Y2228951D01*
X8261654Y2234438D01*
X8258860Y2238857D01*
X8256066Y2242312D01*
X8252968Y2244801D01*
X8249412Y2246426D01*
X8245144Y2247239D01*
G37*
G36*
X8589924Y2120138D02*
G01*
X8533739Y2118664D01*
X8530234Y2118207D01*
X8527389Y2117445D01*
X8525103Y2116226D01*
X8523325Y2114499D01*
X8522004Y2112162D01*
X8520988Y2109063D01*
X8520226Y2105152D01*
X8519210Y2094484D01*
X8517382Y2063902D01*
X8516213Y2052066D01*
X8514689Y2040229D01*
X8512810Y2028342D01*
X8510574Y2016404D01*
X8507933Y2004415D01*
X8504986Y1992477D01*
X8501634Y1980488D01*
X8497976Y1968550D01*
X8493963Y1956663D01*
X8489594Y1944827D01*
X8484920Y1933041D01*
X8479891Y1921357D01*
X8474557Y1909775D01*
X8468918Y1898294D01*
X8462975Y1886966D01*
X8456726Y1875739D01*
X8450173Y1864715D01*
X8443315Y1853793D01*
X8436203Y1843125D01*
X8429650Y1833880D01*
X8423046Y1825396D01*
X8415426Y1816354D01*
X8407044Y1806905D01*
X8388299Y1787194D01*
X8367928Y1767484D01*
X8357565Y1757934D01*
X8347202Y1748789D01*
X8337042Y1740204D01*
X8327237Y1732280D01*
X8317941Y1725218D01*
X8309203Y1719072D01*
X8299602Y1712975D01*
X8288375Y1706219D01*
X8276996Y1699717D01*
X8265464Y1693519D01*
X8253831Y1687575D01*
X8242046Y1681937D01*
X8218322Y1671523D01*
X8206333Y1666748D01*
X8194344Y1662277D01*
X8182356Y1658162D01*
X8170316Y1654302D01*
X8158327Y1650796D01*
X8146338Y1647596D01*
X8134400Y1644751D01*
X8122513Y1642262D01*
X8110778Y1640078D01*
X8099094Y1638249D01*
X8087512Y1636776D01*
X8076082Y1635658D01*
X8064804Y1634947D01*
X8053679Y1634540D01*
X8020761Y1634489D01*
X8017611Y1610918D01*
X8016392Y1592732D01*
X8016290Y1578610D01*
X8016595Y1573936D01*
X8017306Y1570177D01*
X8018627Y1566926D01*
X8020659Y1563878D01*
X8023656Y1560677D01*
X8033156Y1552651D01*
X8041589Y1546199D01*
X8051952Y1538833D01*
X8062975Y1531366D01*
X8073288Y1524812D01*
X8082788Y1519275D01*
X8091474Y1514805D01*
X8098383Y1511706D01*
X8102549Y1510588D01*
X8107934Y1511147D01*
X8131657Y1514957D01*
X8147050Y1517700D01*
X8165541Y1521460D01*
X8190026Y1527403D01*
X8202218Y1530756D01*
X8214359Y1534363D01*
X8238439Y1542288D01*
X8256320Y1548892D01*
X8279841Y1558544D01*
X8297265Y1566367D01*
X8308746Y1571904D01*
X8325764Y1580591D01*
X8348014Y1592884D01*
X8364423Y1602689D01*
X8385759Y1616506D01*
X8396173Y1623669D01*
X8416594Y1638655D01*
X8426602Y1646428D01*
X8446008Y1662531D01*
X8460079Y1675079D01*
X8473694Y1687982D01*
X8486851Y1701292D01*
X8503716Y1719630D01*
X8511794Y1729028D01*
X8527237Y1748180D01*
X8541918Y1767941D01*
X8548928Y1778050D01*
X8562289Y1798624D01*
X8571788Y1814423D01*
X8577834Y1825040D01*
X8589264Y1846732D01*
X8597239Y1863242D01*
X8602268Y1874367D01*
X8611616Y1896922D01*
X8615984Y1908352D01*
X8620099Y1919833D01*
X8623960Y1931365D01*
X8627567Y1942998D01*
X8634069Y1966417D01*
X8639606Y1990089D01*
X8644077Y2013966D01*
X8648496Y2040178D01*
X8632342Y2065629D01*
X8625230Y2075992D01*
X8617305Y2086813D01*
X8609533Y2096820D01*
G37*
G36*
X8666835Y1897938D02*
G01*
X8662822Y1895500D01*
X8658707Y1888286D01*
X8645906Y1857756D01*
X8640978Y1846732D01*
X8633155Y1830324D01*
X8622030Y1808835D01*
X8613140Y1793036D01*
X8600592Y1772361D01*
X8587282Y1752142D01*
X8580374Y1742236D01*
X8565946Y1722831D01*
X8550808Y1703933D01*
X8538972Y1690166D01*
X8522614Y1672234D01*
X8505596Y1654962D01*
X8492388Y1642364D01*
X8478824Y1630121D01*
X8464905Y1618284D01*
X8445804Y1603044D01*
X8436051Y1595678D01*
X8421116Y1584909D01*
X8405876Y1574596D01*
X8390331Y1564640D01*
X8374430Y1555089D01*
X8352840Y1543050D01*
X8330742Y1531772D01*
X8302701Y1518716D01*
X8272322Y1505813D01*
X8257286Y1500174D01*
X8250631Y1497279D01*
X8246160Y1494891D01*
X8244535Y1493316D01*
X8244941Y1491335D01*
X8247837Y1483309D01*
X8255304Y1465834D01*
X8291474Y1465834D01*
X8303717Y1466189D01*
X8315909Y1466900D01*
X8328101Y1467967D01*
X8340191Y1469390D01*
X8352281Y1471117D01*
X8364321Y1473200D01*
X8376259Y1475638D01*
X8388146Y1478432D01*
X8399932Y1481531D01*
X8411667Y1484985D01*
X8423249Y1488744D01*
X8434781Y1492808D01*
X8446160Y1497279D01*
X8457438Y1502003D01*
X8468563Y1507083D01*
X8479536Y1512468D01*
X8490407Y1518158D01*
X8501075Y1524203D01*
X8511590Y1530502D01*
X8521039Y1536598D01*
X8529929Y1542999D01*
X8539429Y1550365D01*
X8549233Y1558544D01*
X8559292Y1567332D01*
X8569401Y1576628D01*
X8579307Y1586230D01*
X8588959Y1595983D01*
X8598052Y1605686D01*
X8606536Y1615236D01*
X8614206Y1624380D01*
X8620861Y1633067D01*
X8627516Y1642668D01*
X8634679Y1653895D01*
X8641486Y1665325D01*
X8647887Y1676958D01*
X8653881Y1688795D01*
X8659469Y1700784D01*
X8664702Y1712975D01*
X8669477Y1725269D01*
X8673846Y1737715D01*
X8677808Y1750314D01*
X8681364Y1763014D01*
X8684463Y1775764D01*
X8687155Y1788617D01*
X8689390Y1801520D01*
X8691168Y1814525D01*
X8692540Y1827530D01*
X8693454Y1840534D01*
X8693912Y1853590D01*
X8693912Y1870456D01*
X8693505Y1878330D01*
X8692591Y1884273D01*
X8690965Y1888540D01*
X8688324Y1891639D01*
X8684463Y1893824D01*
X8679180Y1895602D01*
X8672220Y1897329D01*
G37*
G36*
X8256422Y4231894D02*
G01*
X8107019Y4231284D01*
X7989062Y4229912D01*
X7944053Y4228896D01*
X7911338Y4227728D01*
X7900314Y4227068D01*
X7893202Y4226356D01*
X7885684Y4224426D01*
X7874914Y4220667D01*
X7864500Y4216095D01*
X7854442Y4210761D01*
X7844891Y4204665D01*
X7835747Y4197858D01*
X7827162Y4190441D01*
X7819136Y4182414D01*
X7811719Y4173829D01*
X7804962Y4164685D01*
X7798866Y4155084D01*
X7793532Y4145026D01*
X7788960Y4134612D01*
X7785201Y4123791D01*
X7783474Y4117390D01*
X7782763Y4111345D01*
X7781442Y4087520D01*
X7780375Y4049979D01*
X7779461Y4000957D01*
X7778750Y3942689D01*
X7777888Y3798773D01*
X7829956Y3798773D01*
X7830108Y3807612D01*
X7830667Y3816400D01*
X7831683Y3825189D01*
X7833207Y3833876D01*
X7835138Y3842512D01*
X7837474Y3851148D01*
X7840268Y3859631D01*
X7843520Y3868115D01*
X7847177Y3876497D01*
X7851241Y3884777D01*
X7855712Y3892956D01*
X7860639Y3901084D01*
X7865922Y3909110D01*
X7871612Y3916984D01*
X7877657Y3924757D01*
X7884159Y3932428D01*
X7890967Y3939946D01*
X7898180Y3947363D01*
X7905800Y3954627D01*
X7913725Y3961790D01*
X7922056Y3968750D01*
X7930692Y3975557D01*
X7939735Y3982212D01*
X7949082Y3988714D01*
X7958734Y3995013D01*
X7968792Y4001160D01*
X7979105Y4007154D01*
X7989773Y4012895D01*
X8000796Y4018483D01*
X8012074Y4023817D01*
X8023656Y4028998D01*
X8035594Y4033926D01*
X8047786Y4038650D01*
X8060232Y4043172D01*
X8073034Y4047439D01*
X8086039Y4051452D01*
X8099399Y4055262D01*
X8112963Y4058767D01*
X8126780Y4062069D01*
X8148066Y4066489D01*
X8162544Y4069130D01*
X8176615Y4071365D01*
X8197646Y4074210D01*
X8218678Y4076395D01*
X8246618Y4078376D01*
X8274354Y4079240D01*
X8288172Y4079290D01*
X8301888Y4079087D01*
X8315553Y4078630D01*
X8342579Y4076954D01*
X8369198Y4074312D01*
X8388908Y4071670D01*
X8401862Y4069638D01*
X8427415Y4064863D01*
X8446211Y4060698D01*
X8470696Y4054348D01*
X8494522Y4047185D01*
X8506155Y4043273D01*
X8528812Y4034891D01*
X8550656Y4025696D01*
X8561222Y4020820D01*
X8581694Y4010507D01*
X8591600Y4005072D01*
X8601202Y3999484D01*
X8610549Y3993692D01*
X8619642Y3987749D01*
X8628481Y3981653D01*
X8636965Y3975404D01*
X8645245Y3968953D01*
X8653170Y3962349D01*
X8660790Y3955643D01*
X8668105Y3948734D01*
X8675116Y3941724D01*
X8681821Y3934510D01*
X8688171Y3927195D01*
X8697010Y3915968D01*
X8702497Y3908348D01*
X8707577Y3900525D01*
X8712352Y3892651D01*
X8716721Y3884625D01*
X8720683Y3876497D01*
X8724290Y3868216D01*
X8727490Y3859834D01*
X8730234Y3851401D01*
X8732621Y3842816D01*
X8734602Y3834129D01*
X8736126Y3825341D01*
X8737193Y3816451D01*
X8737904Y3806444D01*
X8737854Y3795318D01*
X8737041Y3784193D01*
X8735415Y3773170D01*
X8733078Y3762298D01*
X8730030Y3751529D01*
X8726271Y3740962D01*
X8721902Y3730650D01*
X8716873Y3720592D01*
X8711234Y3710838D01*
X8705037Y3701440D01*
X8698280Y3692398D01*
X8691016Y3683812D01*
X8683244Y3675634D01*
X8675065Y3668014D01*
X8666429Y3660901D01*
X8657386Y3654348D01*
X8647988Y3648456D01*
X8638235Y3643172D01*
X8628176Y3638600D01*
X8617813Y3634740D01*
X8607196Y3631692D01*
X8592312Y3628136D01*
X8586470Y3625697D01*
X8583218Y3622548D01*
X8581593Y3618026D01*
X8578646Y3605682D01*
X8575294Y3593592D01*
X8571484Y3581654D01*
X8567267Y3569970D01*
X8562594Y3558540D01*
X8557514Y3547313D01*
X8552078Y3536340D01*
X8546185Y3525672D01*
X8539937Y3515258D01*
X8533282Y3505149D01*
X8526322Y3495294D01*
X8518956Y3485743D01*
X8511235Y3476548D01*
X8503158Y3467658D01*
X8494776Y3459073D01*
X8486089Y3450844D01*
X8477046Y3442970D01*
X8467750Y3435451D01*
X8458098Y3428288D01*
X8448192Y3421532D01*
X8437981Y3415182D01*
X8427516Y3409187D01*
X8416798Y3403600D01*
X8405876Y3398418D01*
X8394649Y3393694D01*
X8383168Y3389426D01*
X8371535Y3385565D01*
X8359648Y3382162D01*
X8348268Y3379419D01*
X8336889Y3377082D01*
X8325510Y3375253D01*
X8314181Y3373882D01*
X8302853Y3372916D01*
X8291575Y3372408D01*
X8280349Y3372307D01*
X8269173Y3372662D01*
X8258098Y3373424D01*
X8247075Y3374593D01*
X8236102Y3376168D01*
X8225281Y3378149D01*
X8214563Y3380536D01*
X8203946Y3383279D01*
X8193430Y3386429D01*
X8183067Y3389985D01*
X8172856Y3393897D01*
X8162798Y3398164D01*
X8152892Y3402787D01*
X8143189Y3407765D01*
X8133638Y3413099D01*
X8124291Y3418789D01*
X8115147Y3424783D01*
X8106206Y3431133D01*
X8097469Y3437788D01*
X8088985Y3444748D01*
X8080705Y3452063D01*
X8072729Y3459683D01*
X8064957Y3467557D01*
X8057489Y3475736D01*
X8050275Y3484219D01*
X8043367Y3493008D01*
X8036712Y3502050D01*
X8030413Y3511346D01*
X8024418Y3520948D01*
X8018729Y3530752D01*
X8013395Y3540861D01*
X8008366Y3551174D01*
X8001508Y3567125D01*
X7997444Y3578047D01*
X7993684Y3589223D01*
X7990331Y3600602D01*
X7986064Y3618026D01*
X7984439Y3622548D01*
X7981188Y3625748D01*
X7975346Y3628136D01*
X7960207Y3631793D01*
X7954518Y3633419D01*
X7948726Y3635400D01*
X7937195Y3640226D01*
X7925612Y3646068D01*
X7919872Y3649370D01*
X7908645Y3656634D01*
X7897723Y3664661D01*
X7887360Y3673398D01*
X7877657Y3682644D01*
X7873085Y3687419D01*
X7864652Y3697325D01*
X7860792Y3702354D01*
X7853934Y3712616D01*
X7850936Y3717798D01*
X7846212Y3727450D01*
X7842503Y3736390D01*
X7839202Y3745280D01*
X7836458Y3754221D01*
X7834223Y3763162D01*
X7832445Y3772103D01*
X7831124Y3780993D01*
X7830312Y3789883D01*
X7829956Y3798773D01*
X7777888Y3798773D01*
X7777835Y3671112D01*
X7778546Y3532581D01*
X7779156Y3471418D01*
X7780020Y3418687D01*
X7781036Y3376574D01*
X7782255Y3347364D01*
X7782915Y3338271D01*
X7783677Y3333242D01*
X7786928Y3322421D01*
X7791094Y3311906D01*
X7793431Y3306775D01*
X7798765Y3296767D01*
X7801660Y3291941D01*
X7808061Y3282594D01*
X7815122Y3273704D01*
X7822742Y3265373D01*
X7830972Y3257651D01*
X7839709Y3250488D01*
X7848955Y3244037D01*
X7858607Y3238246D01*
X7868666Y3233267D01*
X7873796Y3231032D01*
X7884363Y3227273D01*
X7890560Y3225546D01*
X7896504Y3224834D01*
X7920126Y3223564D01*
X7957616Y3222447D01*
X8006689Y3221583D01*
X8065058Y3220872D01*
X8209737Y3220008D01*
X8346592Y3219907D01*
X8492540Y3220669D01*
X8551976Y3221329D01*
X8602421Y3222142D01*
X8641588Y3223209D01*
X8667242Y3224428D01*
X8674303Y3225139D01*
X8681770Y3227019D01*
X8692591Y3230778D01*
X8703005Y3235350D01*
X8713063Y3240735D01*
X8722664Y3246780D01*
X8731808Y3253587D01*
X8740394Y3261004D01*
X8744508Y3264915D01*
X8752230Y3273247D01*
X8759342Y3282086D01*
X8765794Y3291433D01*
X8771483Y3301288D01*
X8776462Y3311499D01*
X8780627Y3322116D01*
X8782405Y3327552D01*
X8784132Y3333902D01*
X8784844Y3339998D01*
X8786164Y3363874D01*
X8787231Y3401415D01*
X8788146Y3450437D01*
X8789416Y3573983D01*
X8789720Y3643985D01*
X8789822Y3780332D01*
X8789060Y3926890D01*
X8788400Y3987088D01*
X8787536Y4038650D01*
X8785910Y4094784D01*
X8785250Y4106773D01*
X8784183Y4117390D01*
X8782456Y4123791D01*
X8778697Y4134612D01*
X8774125Y4145026D01*
X8768740Y4155084D01*
X8762695Y4164685D01*
X8755888Y4173829D01*
X8748471Y4182414D01*
X8744559Y4186529D01*
X8736228Y4194251D01*
X8727389Y4201363D01*
X8718042Y4207764D01*
X8708237Y4213504D01*
X8697976Y4218482D01*
X8687358Y4222648D01*
X8681974Y4224426D01*
X8675573Y4226153D01*
X8669477Y4226864D01*
X8659418Y4227576D01*
X8628380Y4228744D01*
X8584793Y4229760D01*
X8530894Y4230573D01*
X8468868Y4231233D01*
X8392160Y4231690D01*
G37*
G36*
X8359648Y3978452D02*
G01*
X8355177Y3978198D01*
X8351215Y3977335D01*
X8347709Y3975862D01*
X8344662Y3973779D01*
X8342071Y3970934D01*
X8339886Y3967378D01*
X8338108Y3963009D01*
X8336737Y3957828D01*
X8335670Y3951782D01*
X8334908Y3944772D01*
X8334502Y3936847D01*
X8334400Y3917340D01*
X8334552Y3909060D01*
X8334959Y3902710D01*
X8335619Y3897833D01*
X8336635Y3894074D01*
X8338108Y3891076D01*
X8340039Y3888384D01*
X8342630Y3885641D01*
X8346541Y3882440D01*
X8351062Y3879799D01*
X8355584Y3878021D01*
X8359648Y3877360D01*
X8364118Y3877665D01*
X8368080Y3878478D01*
X8371535Y3879951D01*
X8374583Y3882085D01*
X8377174Y3884879D01*
X8379358Y3888486D01*
X8381136Y3892854D01*
X8382558Y3898036D01*
X8383574Y3904081D01*
X8384336Y3911041D01*
X8384743Y3918965D01*
X8384895Y3927906D01*
X8384743Y3936847D01*
X8384336Y3944772D01*
X8383574Y3951782D01*
X8382558Y3957828D01*
X8381136Y3963009D01*
X8379358Y3967378D01*
X8377174Y3970934D01*
X8374583Y3973779D01*
X8371535Y3975862D01*
X8368080Y3977335D01*
X8364118Y3978198D01*
G37*
G36*
X8283803Y3978452D02*
G01*
X8278926Y3978249D01*
X8274710Y3977640D01*
X8271052Y3976471D01*
X8267953Y3974642D01*
X8265414Y3972153D01*
X8263331Y3968902D01*
X8261705Y3964736D01*
X8260486Y3959606D01*
X8259572Y3953459D01*
X8258962Y3946194D01*
X8258556Y3927906D01*
X8258759Y3906926D01*
X8259114Y3899966D01*
X8259724Y3894836D01*
X8260689Y3891076D01*
X8262112Y3888282D01*
X8264042Y3885996D01*
X8266531Y3883812D01*
X8270341Y3881323D01*
X8274862Y3879291D01*
X8279536Y3877868D01*
X8283803Y3877360D01*
X8288680Y3877564D01*
X8292947Y3878224D01*
X8296605Y3879392D01*
X8299653Y3881170D01*
X8302193Y3883660D01*
X8304275Y3886962D01*
X8305952Y3891127D01*
X8307171Y3896258D01*
X8308086Y3902405D01*
X8308644Y3909669D01*
X8309000Y3918153D01*
X8309000Y3937711D01*
X8308644Y3946194D01*
X8308086Y3953459D01*
X8307171Y3959606D01*
X8305952Y3964736D01*
X8304275Y3968902D01*
X8302193Y3972153D01*
X8299653Y3974642D01*
X8296605Y3976471D01*
X8292947Y3977640D01*
X8288680Y3978249D01*
G37*
G36*
X8208009Y3978452D02*
G01*
X8203539Y3978198D01*
X8199577Y3977335D01*
X8196122Y3975862D01*
X8193074Y3973779D01*
X8190484Y3970934D01*
X8188299Y3967378D01*
X8186521Y3963009D01*
X8185099Y3957828D01*
X8184032Y3951782D01*
X8183321Y3944772D01*
X8182864Y3936847D01*
X8182965Y3909060D01*
X8183321Y3902710D01*
X8183981Y3897833D01*
X8185048Y3894074D01*
X8186470Y3891076D01*
X8188452Y3888384D01*
X8191042Y3885641D01*
X8194903Y3882440D01*
X8199424Y3879799D01*
X8203996Y3878021D01*
X8208009Y3877360D01*
X8212480Y3877665D01*
X8216442Y3878478D01*
X8219948Y3879951D01*
X8222996Y3882085D01*
X8225586Y3884879D01*
X8227720Y3888486D01*
X8229549Y3892854D01*
X8230920Y3898036D01*
X8231987Y3904081D01*
X8232749Y3911041D01*
X8233156Y3918965D01*
X8233308Y3927906D01*
X8233156Y3936847D01*
X8232749Y3944772D01*
X8231987Y3951782D01*
X8230920Y3957828D01*
X8229549Y3963009D01*
X8227720Y3967378D01*
X8225586Y3970934D01*
X8222996Y3973779D01*
X8219948Y3975862D01*
X8216442Y3977335D01*
X8212480Y3978198D01*
G37*
G36*
X8283803Y3853027D02*
G01*
X8241284Y3852570D01*
X8210550Y3851605D01*
X8197240Y3850944D01*
X8185607Y3850081D01*
X8176107Y3849115D01*
X8168995Y3848049D01*
X8166404Y3847439D01*
X8164575Y3846779D01*
X8163509Y3846118D01*
X8161985Y3844239D01*
X8160766Y3841597D01*
X8159750Y3837635D01*
X8158937Y3831894D01*
X8158276Y3823817D01*
X8157362Y3798773D01*
X8156811Y3762959D01*
X8220964Y3762959D01*
X8221573Y3767226D01*
X8223250Y3771442D01*
X8225942Y3775710D01*
X8229650Y3779926D01*
X8234070Y3783634D01*
X8238540Y3786174D01*
X8243062Y3787648D01*
X8247532Y3788105D01*
X8251799Y3787648D01*
X8255863Y3786378D01*
X8259572Y3784346D01*
X8262874Y3781704D01*
X8265668Y3778453D01*
X8267852Y3774744D01*
X8269376Y3770629D01*
X8270087Y3766159D01*
X8269986Y3761486D01*
X8268919Y3756660D01*
X8266836Y3751783D01*
X8259419Y3740454D01*
X8257184Y3734765D01*
X8257133Y3730650D01*
X8259470Y3729126D01*
X8262366Y3730955D01*
X8268208Y3736035D01*
X8276234Y3743553D01*
X8292541Y3759708D01*
X8303056Y3769360D01*
X8307120Y3772357D01*
X8310727Y3774338D01*
X8314131Y3775557D01*
X8317687Y3776116D01*
X8334349Y3776268D01*
X8334400Y3735476D01*
X8334959Y3722420D01*
X8335467Y3717391D01*
X8336127Y3713276D01*
X8336940Y3710025D01*
X8337956Y3707536D01*
X8342528Y3701491D01*
X8344916Y3697173D01*
X8346287Y3692906D01*
X8346694Y3688638D01*
X8346084Y3684371D01*
X8344509Y3680206D01*
X8341918Y3676040D01*
X8338312Y3671925D01*
X8334044Y3667963D01*
X8329828Y3664762D01*
X8326221Y3662679D01*
X8323681Y3661918D01*
X8318195Y3662679D01*
X8313267Y3664204D01*
X8308898Y3666540D01*
X8305190Y3669487D01*
X8302193Y3672992D01*
X8299907Y3676904D01*
X8298383Y3681222D01*
X8297722Y3685743D01*
X8297875Y3690467D01*
X8298992Y3695242D01*
X8301024Y3700018D01*
X8308238Y3711041D01*
X8310473Y3716731D01*
X8310473Y3720846D01*
X8308136Y3722370D01*
X8305292Y3720541D01*
X8299450Y3715461D01*
X8291423Y3707942D01*
X8269325Y3686301D01*
X8264550Y3682136D01*
X8260537Y3679139D01*
X8256930Y3677158D01*
X8253526Y3675938D01*
X8249970Y3675329D01*
X8233308Y3675176D01*
X8233206Y3715969D01*
X8232698Y3729075D01*
X8232190Y3734104D01*
X8231530Y3738219D01*
X8230717Y3741470D01*
X8229701Y3743909D01*
X8225078Y3750056D01*
X8222691Y3754374D01*
X8221319Y3758692D01*
X8220964Y3762959D01*
X8156811Y3762959D01*
X8156397Y3714851D01*
X8156295Y3663492D01*
X8156651Y3645204D01*
X8157362Y3631082D01*
X8158429Y3620515D01*
X8160003Y3612946D01*
X8160969Y3610051D01*
X8162086Y3607714D01*
X8163356Y3605834D01*
X8164779Y3604260D01*
X8168131Y3602024D01*
X8170062Y3601110D01*
X8174431Y3600145D01*
X8182000Y3599383D01*
X8192363Y3598722D01*
X8219846Y3598011D01*
X8236153Y3597859D01*
X8281111Y3598164D01*
X8317941Y3598926D01*
X8351977Y3600196D01*
X8379866Y3601821D01*
X8390534Y3602736D01*
X8398408Y3603751D01*
X8403132Y3604818D01*
X8404148Y3605377D01*
X8404809Y3606495D01*
X8406079Y3610864D01*
X8407196Y3618026D01*
X8408162Y3627526D01*
X8409686Y3652469D01*
X8410651Y3683203D01*
X8411057Y3717086D01*
X8410803Y3760063D01*
X8409940Y3791762D01*
X8408568Y3818382D01*
X8407654Y3828999D01*
X8406638Y3837330D01*
X8405469Y3843172D01*
X8404809Y3845001D01*
X8404148Y3846068D01*
X8403031Y3846779D01*
X8398662Y3847998D01*
X8391550Y3849115D01*
X8382000Y3850081D01*
X8357057Y3851605D01*
X8326374Y3852570D01*
G37*
G36*
X8485987Y3826814D02*
G01*
X8477046Y3826713D01*
X8469122Y3826256D01*
X8462111Y3825544D01*
X8456066Y3824478D01*
X8450884Y3823055D01*
X8446516Y3821277D01*
X8442960Y3819093D01*
X8440115Y3816502D01*
X8438032Y3813505D01*
X8436559Y3810000D01*
X8435695Y3806037D01*
X8435441Y3801567D01*
X8436102Y3797503D01*
X8437880Y3792982D01*
X8440521Y3788460D01*
X8443722Y3784549D01*
X8446414Y3782009D01*
X8449106Y3780028D01*
X8452104Y3778554D01*
X8455863Y3777538D01*
X8460740Y3776878D01*
X8467090Y3776472D01*
X8485987Y3776268D01*
X8494928Y3776421D01*
X8502853Y3776827D01*
X8509812Y3777589D01*
X8515858Y3778656D01*
X8521039Y3780028D01*
X8525408Y3781856D01*
X8528964Y3783990D01*
X8531809Y3786581D01*
X8533892Y3789629D01*
X8535365Y3793134D01*
X8536228Y3797096D01*
X8536482Y3801567D01*
X8536228Y3806037D01*
X8535365Y3810000D01*
X8533892Y3813505D01*
X8531809Y3816502D01*
X8528964Y3819093D01*
X8525408Y3821277D01*
X8521039Y3823055D01*
X8515858Y3824478D01*
X8509812Y3825544D01*
X8502853Y3826256D01*
X8494928Y3826713D01*
G37*
G36*
X8081670Y3826814D02*
G01*
X8072729Y3826713D01*
X8064804Y3826256D01*
X8057845Y3825544D01*
X8051800Y3824478D01*
X8046618Y3823055D01*
X8042249Y3821277D01*
X8038693Y3819093D01*
X8035848Y3816502D01*
X8033766Y3813505D01*
X8032292Y3810000D01*
X8031429Y3806037D01*
X8031175Y3801567D01*
X8031835Y3797503D01*
X8033562Y3792982D01*
X8036204Y3788460D01*
X8039404Y3784549D01*
X8042148Y3782009D01*
X8044840Y3780028D01*
X8047837Y3778554D01*
X8051596Y3777538D01*
X8056473Y3776878D01*
X8062823Y3776472D01*
X8081670Y3776268D01*
X8090611Y3776421D01*
X8098536Y3776827D01*
X8105546Y3777589D01*
X8111591Y3778656D01*
X8116773Y3780028D01*
X8121142Y3781856D01*
X8124698Y3783990D01*
X8127542Y3786581D01*
X8129625Y3789629D01*
X8131098Y3793134D01*
X8131962Y3797096D01*
X8132216Y3801567D01*
X8131962Y3806037D01*
X8131098Y3810000D01*
X8129625Y3813505D01*
X8127542Y3816502D01*
X8124698Y3819093D01*
X8121142Y3821277D01*
X8116773Y3823055D01*
X8111591Y3824478D01*
X8105546Y3825544D01*
X8098536Y3826256D01*
X8090611Y3826713D01*
G37*
G36*
X8481720Y3752138D02*
G01*
X8467191Y3751834D01*
X8461298Y3751275D01*
X8456218Y3750462D01*
X8451900Y3749344D01*
X8448243Y3747922D01*
X8445144Y3746093D01*
X8442604Y3743909D01*
X8440521Y3741369D01*
X8438794Y3738372D01*
X8437372Y3734917D01*
X8436203Y3730294D01*
X8435848Y3725621D01*
X8436305Y3720947D01*
X8437524Y3716528D01*
X8439454Y3712362D01*
X8441994Y3708603D01*
X8445195Y3705453D01*
X8448954Y3702964D01*
X8451443Y3701948D01*
X8454694Y3701084D01*
X8458657Y3700373D01*
X8463432Y3699865D01*
X8475319Y3699357D01*
X8490458Y3699510D01*
X8499094Y3699865D01*
X8506663Y3700475D01*
X8513165Y3701287D01*
X8518753Y3702354D01*
X8523427Y3703777D01*
X8527288Y3705555D01*
X8530386Y3707739D01*
X8532723Y3710330D01*
X8534501Y3713378D01*
X8535619Y3716934D01*
X8536279Y3721049D01*
X8536482Y3725722D01*
X8536279Y3730396D01*
X8535619Y3734511D01*
X8534501Y3738067D01*
X8532723Y3741165D01*
X8530386Y3743756D01*
X8527288Y3745941D01*
X8523427Y3747719D01*
X8518753Y3749141D01*
X8513165Y3750208D01*
X8506663Y3751021D01*
X8499094Y3751630D01*
G37*
G36*
X8077453Y3752138D02*
G01*
X8062925Y3751834D01*
X8057032Y3751275D01*
X8051952Y3750462D01*
X8047634Y3749344D01*
X8043976Y3747922D01*
X8040878Y3746093D01*
X8038338Y3743909D01*
X8036255Y3741369D01*
X8034528Y3738372D01*
X8033105Y3734917D01*
X8031937Y3730294D01*
X8031581Y3725621D01*
X8032038Y3720947D01*
X8033258Y3716528D01*
X8035137Y3712362D01*
X8037728Y3708603D01*
X8040928Y3705453D01*
X8044688Y3702964D01*
X8047177Y3701948D01*
X8050377Y3701084D01*
X8054390Y3700373D01*
X8059166Y3699865D01*
X8071053Y3699357D01*
X8086191Y3699510D01*
X8094827Y3699865D01*
X8102396Y3700475D01*
X8108899Y3701287D01*
X8114487Y3702354D01*
X8119160Y3703777D01*
X8123021Y3705555D01*
X8126120Y3707739D01*
X8128457Y3710330D01*
X8130235Y3713378D01*
X8131352Y3716934D01*
X8132013Y3721049D01*
X8132216Y3725722D01*
X8132013Y3730396D01*
X8131352Y3734511D01*
X8130235Y3738067D01*
X8128457Y3741165D01*
X8126120Y3743756D01*
X8123021Y3745941D01*
X8119160Y3747719D01*
X8114487Y3749141D01*
X8108899Y3750208D01*
X8102396Y3751021D01*
X8094827Y3751630D01*
G37*
G36*
X8485987Y3675176D02*
G01*
X8477046Y3675075D01*
X8469122Y3674618D01*
X8462111Y3673906D01*
X8456066Y3672840D01*
X8450884Y3671417D01*
X8446516Y3669639D01*
X8442960Y3667455D01*
X8440115Y3664864D01*
X8438032Y3661867D01*
X8436559Y3658362D01*
X8435695Y3654399D01*
X8435441Y3649929D01*
X8436102Y3645865D01*
X8437880Y3641344D01*
X8440521Y3636822D01*
X8443722Y3632911D01*
X8446566Y3630726D01*
X8450427Y3628796D01*
X8455101Y3627170D01*
X8460435Y3625850D01*
X8466328Y3624834D01*
X8472678Y3624072D01*
X8479231Y3623665D01*
X8485987Y3623513D01*
X8492693Y3623665D01*
X8499297Y3624072D01*
X8505596Y3624834D01*
X8511489Y3625850D01*
X8516823Y3627170D01*
X8521496Y3628796D01*
X8525357Y3630726D01*
X8528253Y3632911D01*
X8531707Y3636975D01*
X8534146Y3641191D01*
X8535619Y3645560D01*
X8536127Y3649929D01*
X8535619Y3654298D01*
X8534146Y3658666D01*
X8531707Y3662883D01*
X8528253Y3666947D01*
X8525510Y3669487D01*
X8522817Y3671468D01*
X8519820Y3672941D01*
X8516061Y3673957D01*
X8511184Y3674618D01*
X8504834Y3674973D01*
G37*
G36*
X8081670Y3675176D02*
G01*
X8072729Y3675075D01*
X8064804Y3674618D01*
X8057845Y3673906D01*
X8051800Y3672840D01*
X8046618Y3671417D01*
X8042249Y3669639D01*
X8038693Y3667455D01*
X8035848Y3664864D01*
X8033766Y3661867D01*
X8032292Y3658362D01*
X8031429Y3654399D01*
X8031175Y3649929D01*
X8031835Y3645865D01*
X8033562Y3641344D01*
X8036204Y3636822D01*
X8039404Y3632911D01*
X8042300Y3630726D01*
X8046161Y3628796D01*
X8050784Y3627170D01*
X8056168Y3625850D01*
X8062061Y3624834D01*
X8068360Y3624072D01*
X8074964Y3623665D01*
X8081670Y3623513D01*
X8088426Y3623665D01*
X8094980Y3624072D01*
X8101279Y3624834D01*
X8107222Y3625850D01*
X8112556Y3627170D01*
X8117230Y3628796D01*
X8121040Y3630726D01*
X8123936Y3632911D01*
X8127390Y3636975D01*
X8129879Y3641191D01*
X8131352Y3645560D01*
X8131860Y3649929D01*
X8131352Y3654298D01*
X8129879Y3658666D01*
X8127390Y3662883D01*
X8123936Y3666947D01*
X8121243Y3669487D01*
X8118551Y3671468D01*
X8115553Y3672941D01*
X8111794Y3673957D01*
X8106918Y3674618D01*
X8100517Y3674973D01*
G37*
G36*
X8359648Y3574135D02*
G01*
X8355177Y3573830D01*
X8351215Y3573018D01*
X8347709Y3571544D01*
X8344662Y3569411D01*
X8342071Y3566617D01*
X8339886Y3563010D01*
X8338108Y3558692D01*
X8336737Y3553460D01*
X8335670Y3547414D01*
X8334908Y3540455D01*
X8334502Y3532530D01*
X8334400Y3513023D01*
X8334552Y3504692D01*
X8334959Y3498342D01*
X8335619Y3493465D01*
X8336635Y3489706D01*
X8338108Y3486708D01*
X8340039Y3484016D01*
X8342630Y3481273D01*
X8346541Y3478072D01*
X8351062Y3475431D01*
X8355584Y3473704D01*
X8359648Y3473043D01*
X8364118Y3473297D01*
X8368080Y3474161D01*
X8371535Y3475634D01*
X8374583Y3477717D01*
X8377174Y3480562D01*
X8379358Y3484118D01*
X8381136Y3488486D01*
X8382558Y3493668D01*
X8383574Y3499713D01*
X8384336Y3506724D01*
X8384743Y3514648D01*
X8384895Y3523589D01*
X8384743Y3532530D01*
X8384336Y3540455D01*
X8383574Y3547414D01*
X8382558Y3553460D01*
X8381136Y3558692D01*
X8379358Y3563010D01*
X8377174Y3566617D01*
X8374583Y3569411D01*
X8371535Y3571544D01*
X8368080Y3573018D01*
X8364118Y3573830D01*
G37*
G36*
X8283803Y3574135D02*
G01*
X8278926Y3573932D01*
X8274710Y3573272D01*
X8271052Y3572103D01*
X8267953Y3570325D01*
X8265414Y3567836D01*
X8263331Y3564534D01*
X8261705Y3560368D01*
X8260486Y3555288D01*
X8259572Y3549091D01*
X8258962Y3541826D01*
X8258556Y3523589D01*
X8258759Y3502558D01*
X8259114Y3495598D01*
X8259724Y3490468D01*
X8260689Y3486708D01*
X8262112Y3483914D01*
X8264042Y3481628D01*
X8266531Y3479444D01*
X8270341Y3476955D01*
X8274862Y3474923D01*
X8279536Y3473551D01*
X8283803Y3473043D01*
X8288680Y3473246D01*
X8292947Y3473856D01*
X8296605Y3475024D01*
X8299653Y3476853D01*
X8302193Y3479342D01*
X8304275Y3482594D01*
X8305952Y3486759D01*
X8307171Y3491890D01*
X8308086Y3498037D01*
X8308644Y3505301D01*
X8309000Y3513785D01*
X8309000Y3533343D01*
X8308644Y3541826D01*
X8308086Y3549091D01*
X8307171Y3555288D01*
X8305952Y3560368D01*
X8304275Y3564534D01*
X8302193Y3567836D01*
X8299653Y3570325D01*
X8296605Y3572103D01*
X8292947Y3573272D01*
X8288680Y3573932D01*
G37*
G36*
X8208009Y3574135D02*
G01*
X8203539Y3573830D01*
X8199577Y3573018D01*
X8196122Y3571544D01*
X8193074Y3569411D01*
X8190484Y3566617D01*
X8188299Y3563010D01*
X8186521Y3558692D01*
X8185099Y3553460D01*
X8184032Y3547414D01*
X8183321Y3540455D01*
X8182864Y3532530D01*
X8182965Y3504692D01*
X8183321Y3498342D01*
X8183981Y3493465D01*
X8185048Y3489706D01*
X8186470Y3486708D01*
X8188452Y3484016D01*
X8191042Y3481273D01*
X8194903Y3478072D01*
X8199424Y3475431D01*
X8203996Y3473704D01*
X8208009Y3473043D01*
X8212480Y3473297D01*
X8216442Y3474161D01*
X8219948Y3475634D01*
X8222996Y3477717D01*
X8225586Y3480562D01*
X8227720Y3484118D01*
X8229549Y3488486D01*
X8230920Y3493668D01*
X8231987Y3499713D01*
X8232749Y3506724D01*
X8233156Y3514648D01*
X8233308Y3523589D01*
X8233156Y3532530D01*
X8232749Y3540455D01*
X8231987Y3547414D01*
X8230920Y3553460D01*
X8229549Y3558692D01*
X8227720Y3563010D01*
X8225586Y3566617D01*
X8222996Y3569411D01*
X8219948Y3571544D01*
X8216442Y3573018D01*
X8212480Y3573830D01*
G37*
G36*
X8331708Y4483201D02*
G01*
X8331708Y4349496D01*
X8343138Y4349496D01*
X8343188Y4425950D01*
X8343493Y4447438D01*
X8343950Y4455210D01*
X8344712Y4461357D01*
X8345779Y4465980D01*
X8347252Y4469384D01*
X8349183Y4471670D01*
X8351621Y4473143D01*
X8354669Y4473905D01*
X8358378Y4474210D01*
X8368741Y4474108D01*
X8373313Y4473448D01*
X8376615Y4472025D01*
X8378850Y4469587D01*
X8380120Y4465929D01*
X8380526Y4460849D01*
X8380272Y4454042D01*
X8376462Y4416348D01*
X8397849Y4453585D01*
X8402116Y4460341D01*
X8405926Y4465574D01*
X8409381Y4469333D01*
X8412581Y4471568D01*
X8415731Y4472330D01*
X8418830Y4471568D01*
X8422081Y4469333D01*
X8425535Y4465574D01*
X8429345Y4460341D01*
X8433612Y4453585D01*
X8454999Y4416348D01*
X8451138Y4454347D01*
X8450834Y4461306D01*
X8451392Y4466437D01*
X8452866Y4469993D01*
X8455507Y4472279D01*
X8459520Y4473600D01*
X8465108Y4474159D01*
X8495944Y4474260D01*
X8495944Y4411878D01*
X8499754Y4411878D01*
X8499957Y4417618D01*
X8500516Y4423105D01*
X8501481Y4428337D01*
X8502802Y4433316D01*
X8504478Y4438040D01*
X8506510Y4442510D01*
X8508898Y4446727D01*
X8511590Y4450638D01*
X8514638Y4454296D01*
X8517991Y4457649D01*
X8521700Y4460697D01*
X8525713Y4463491D01*
X8530031Y4465929D01*
X8534603Y4468063D01*
X8539480Y4469892D01*
X8544661Y4471416D01*
X8550097Y4472533D01*
X8555837Y4473397D01*
X8561832Y4473854D01*
X8568029Y4473956D01*
X8576310Y4473702D01*
X8584133Y4473041D01*
X8591600Y4472025D01*
X8598509Y4470704D01*
X8604961Y4469079D01*
X8610803Y4467199D01*
X8615984Y4465066D01*
X8620556Y4462678D01*
X8624366Y4460138D01*
X8627414Y4457496D01*
X8629599Y4454652D01*
X8630970Y4451756D01*
X8631428Y4448759D01*
X8630920Y4445711D01*
X8629396Y4442663D01*
X8626805Y4439615D01*
X8623452Y4436719D01*
X8620252Y4434738D01*
X8617051Y4433722D01*
X8613698Y4433722D01*
X8609990Y4434687D01*
X8605824Y4436668D01*
X8601049Y4439666D01*
X8595461Y4443780D01*
X8590076Y4447438D01*
X8584742Y4450232D01*
X8579510Y4452162D01*
X8574379Y4453331D01*
X8569452Y4453636D01*
X8564676Y4453229D01*
X8560155Y4452061D01*
X8555990Y4450181D01*
X8552078Y4447590D01*
X8548573Y4444339D01*
X8545525Y4440428D01*
X8542883Y4435856D01*
X8540800Y4430725D01*
X8539226Y4424984D01*
X8538260Y4418685D01*
X8537956Y4411878D01*
X8538260Y4405020D01*
X8538930Y4400651D01*
X8642604Y4400651D01*
X8642959Y4413046D01*
X8643518Y4419193D01*
X8644382Y4425238D01*
X8645550Y4431131D01*
X8647023Y4436770D01*
X8648801Y4442155D01*
X8650833Y4447184D01*
X8653221Y4451807D01*
X8655862Y4455922D01*
X8658860Y4459528D01*
X8661755Y4462068D01*
X8665413Y4464405D01*
X8669680Y4466488D01*
X8674506Y4468368D01*
X8679789Y4469942D01*
X8685428Y4471314D01*
X8691422Y4472432D01*
X8697569Y4473295D01*
X8710218Y4474311D01*
X8716568Y4474413D01*
X8728710Y4473803D01*
X8734450Y4473092D01*
X8739733Y4472127D01*
X8744610Y4470908D01*
X8748928Y4469384D01*
X8752636Y4467606D01*
X8755583Y4465523D01*
X8757767Y4463135D01*
X8760053Y4459427D01*
X8762085Y4455160D01*
X8763863Y4450435D01*
X8765438Y4445254D01*
X8766759Y4439716D01*
X8768689Y4427829D01*
X8769756Y4415180D01*
X8769908Y4402378D01*
X8769705Y4396079D01*
X8768638Y4383938D01*
X8766759Y4372864D01*
X8765540Y4367936D01*
X8764117Y4363415D01*
X8762542Y4359402D01*
X8760764Y4355998D01*
X8758783Y4353255D01*
X8756650Y4351172D01*
X8754313Y4349902D01*
X8751824Y4349496D01*
X8745829Y4349648D01*
X8741308Y4350461D01*
X8738006Y4352340D01*
X8735872Y4355693D01*
X8734704Y4360976D01*
X8734298Y4368546D01*
X8734552Y4378858D01*
X8735771Y4403496D01*
X8735822Y4413097D01*
X8735415Y4421378D01*
X8734450Y4428439D01*
X8732977Y4434433D01*
X8730945Y4439513D01*
X8728354Y4443831D01*
X8725103Y4447540D01*
X8720988Y4451146D01*
X8717026Y4453686D01*
X8713216Y4455312D01*
X8709660Y4455972D01*
X8706256Y4455668D01*
X8703157Y4454448D01*
X8700211Y4452315D01*
X8697569Y4449267D01*
X8695182Y4445406D01*
X8693048Y4440631D01*
X8691219Y4435043D01*
X8689695Y4428642D01*
X8688527Y4421428D01*
X8687612Y4413453D01*
X8687104Y4404715D01*
X8686901Y4385106D01*
X8686444Y4369511D01*
X8685936Y4363821D01*
X8685123Y4359300D01*
X8683955Y4355846D01*
X8682380Y4353306D01*
X8680348Y4351578D01*
X8677706Y4350410D01*
X8674455Y4349800D01*
X8665921Y4349496D01*
X8662670Y4349902D01*
X8659622Y4351121D01*
X8656878Y4353102D01*
X8654288Y4355795D01*
X8652002Y4359097D01*
X8649919Y4362958D01*
X8648090Y4367326D01*
X8646566Y4372102D01*
X8645245Y4377283D01*
X8644178Y4382820D01*
X8642858Y4394555D01*
X8642604Y4400651D01*
X8538930Y4400651D01*
X8539226Y4398721D01*
X8540800Y4392980D01*
X8542934Y4387850D01*
X8545525Y4383278D01*
X8548624Y4379366D01*
X8552129Y4376115D01*
X8556040Y4373575D01*
X8560257Y4371695D01*
X8564778Y4370578D01*
X8569553Y4370171D01*
X8574532Y4370578D01*
X8579713Y4371746D01*
X8584996Y4373727D01*
X8590381Y4376572D01*
X8602014Y4384903D01*
X8607094Y4388256D01*
X8611209Y4390288D01*
X8614765Y4391101D01*
X8617915Y4390644D01*
X8621014Y4388967D01*
X8624265Y4386072D01*
X8628024Y4381957D01*
X8631478Y4377690D01*
X8633815Y4374184D01*
X8634882Y4371289D01*
X8634628Y4368800D01*
X8633002Y4366463D01*
X8629904Y4364177D01*
X8625230Y4361688D01*
X8618982Y4358792D01*
X8612581Y4356150D01*
X8606231Y4353915D01*
X8599881Y4352036D01*
X8593582Y4350613D01*
X8587333Y4349496D01*
X8581237Y4348784D01*
X8575192Y4348429D01*
X8569248Y4348429D01*
X8563457Y4348784D01*
X8557768Y4349496D01*
X8552281Y4350512D01*
X8546998Y4351832D01*
X8541867Y4353509D01*
X8536990Y4355490D01*
X8532317Y4357776D01*
X8527897Y4360367D01*
X8523732Y4363212D01*
X8519820Y4366412D01*
X8516213Y4369816D01*
X8512962Y4373524D01*
X8509965Y4377486D01*
X8507374Y4381703D01*
X8505088Y4386122D01*
X8503208Y4390847D01*
X8501735Y4395774D01*
X8500618Y4400956D01*
X8499957Y4406290D01*
X8499754Y4411878D01*
X8495944Y4411878D01*
X8495944Y4349496D01*
X8467293Y4349496D01*
X8456269Y4350004D01*
X8447532Y4351477D01*
X8441893Y4353560D01*
X8440216Y4356201D01*
X8439912Y4360875D01*
X8437727Y4368698D01*
X8434171Y4378604D01*
X8429548Y4389475D01*
X8417204Y4416145D01*
X8403590Y4382820D01*
X8399526Y4373422D01*
X8395766Y4365904D01*
X8392058Y4360062D01*
X8388146Y4355744D01*
X8383879Y4352696D01*
X8379002Y4350766D01*
X8373313Y4349800D01*
X8366556Y4349496D01*
X8331708Y4349496D01*
X8331708Y4340555D01*
X8790025Y4340555D01*
X8790025Y4483201D01*
G37*
G36*
X7876590Y4474972D02*
G01*
X7873949Y4474311D01*
X7871053Y4472990D01*
X7867903Y4470958D01*
X7864500Y4468317D01*
X7856880Y4461002D01*
X7848092Y4451096D01*
X7826197Y4423867D01*
X7821168Y4418076D01*
X7816646Y4413351D01*
X7812684Y4409643D01*
X7809179Y4407001D01*
X7806232Y4405426D01*
X7803743Y4404918D01*
X7801660Y4405426D01*
X7800086Y4407001D01*
X7798866Y4409643D01*
X7798053Y4413351D01*
X7797596Y4418076D01*
X7797495Y4423867D01*
X7797698Y4430725D01*
X7798968Y4448657D01*
X7799171Y4456633D01*
X7798917Y4462881D01*
X7798053Y4467504D01*
X7796530Y4470806D01*
X7794345Y4472838D01*
X7791399Y4473956D01*
X7787589Y4474260D01*
X7784896Y4474108D01*
X7782559Y4473397D01*
X7780528Y4472127D01*
X7778902Y4470095D01*
X7777530Y4467148D01*
X7776413Y4463288D01*
X7775600Y4458258D01*
X7774940Y4452010D01*
X7774228Y4435195D01*
X7774025Y4411878D01*
X7774279Y4394454D01*
X7775041Y4379925D01*
X7775600Y4373778D01*
X7777327Y4363516D01*
X7778445Y4359452D01*
X7779766Y4356100D01*
X7781340Y4353407D01*
X7783068Y4351426D01*
X7785100Y4350105D01*
X7787335Y4349496D01*
X7789824Y4349496D01*
X7792567Y4350207D01*
X7795615Y4351578D01*
X7798917Y4353560D01*
X7802575Y4356201D01*
X7806537Y4359503D01*
X7815376Y4368038D01*
X7825638Y4379061D01*
X7861909Y4420616D01*
X7864805Y4377994D01*
X7866329Y4365904D01*
X7868259Y4356506D01*
X7869377Y4352747D01*
X7870596Y4349648D01*
X7871815Y4347210D01*
X7873136Y4345330D01*
X7874508Y4344111D01*
X7875879Y4343450D01*
X7877251Y4343349D01*
X7878673Y4343857D01*
X7880045Y4344873D01*
X7881416Y4346448D01*
X7882788Y4348581D01*
X7884109Y4351274D01*
X7886547Y4358081D01*
X7888681Y4366869D01*
X7890408Y4377588D01*
X7891678Y4390034D01*
X7892338Y4404207D01*
X7892389Y4421022D01*
X7891830Y4437075D01*
X7891373Y4444034D01*
X7889951Y4455820D01*
X7888935Y4460646D01*
X7887817Y4464761D01*
X7886446Y4468164D01*
X7884922Y4470908D01*
X7883144Y4472940D01*
X7881213Y4474311D01*
X7879029Y4474972D01*
G37*
G36*
X8209483Y4474260D02*
G01*
X8209483Y4349496D01*
X8273999Y4349648D01*
X8284209Y4350156D01*
X8293303Y4350969D01*
X8301126Y4352036D01*
X8307527Y4353356D01*
X8312353Y4354880D01*
X8315350Y4356557D01*
X8316417Y4358386D01*
X8315655Y4360214D01*
X8313420Y4361891D01*
X8309864Y4363364D01*
X8305190Y4364685D01*
X8299551Y4365802D01*
X8293049Y4366615D01*
X8285886Y4367123D01*
X8268309Y4367479D01*
X8260080Y4367987D01*
X8253475Y4368901D01*
X8248294Y4370222D01*
X8244484Y4372000D01*
X8241944Y4374337D01*
X8240471Y4377232D01*
X8240014Y4380687D01*
X8241588Y4386732D01*
X8246364Y4390898D01*
X8254695Y4393285D01*
X8277148Y4394758D01*
X8285632Y4396689D01*
X8291372Y4399534D01*
X8293506Y4402988D01*
X8291372Y4406442D01*
X8285632Y4409287D01*
X8277148Y4411167D01*
X8266734Y4411878D01*
X8258860Y4412030D01*
X8252714Y4412640D01*
X8247989Y4413808D01*
X8244586Y4415688D01*
X8242300Y4418533D01*
X8240928Y4422444D01*
X8240217Y4427626D01*
X8240014Y4434179D01*
X8240217Y4441088D01*
X8240979Y4446422D01*
X8242706Y4450384D01*
X8245754Y4453128D01*
X8250478Y4454906D01*
X8257235Y4455922D01*
X8266328Y4456379D01*
X8285886Y4456633D01*
X8293049Y4457141D01*
X8299551Y4458004D01*
X8305190Y4459071D01*
X8309864Y4460392D01*
X8313420Y4461916D01*
X8315655Y4463592D01*
X8316417Y4465370D01*
X8315350Y4467199D01*
X8312353Y4468926D01*
X8307527Y4470450D01*
X8301126Y4471720D01*
X8293303Y4472787D01*
X8284209Y4473600D01*
X8273999Y4474108D01*
G37*
G36*
X8068157Y4474260D02*
G01*
X8068157Y4411878D01*
X8094878Y4411878D01*
X8094980Y4430623D01*
X8095284Y4437634D01*
X8095843Y4443222D01*
X8096707Y4447590D01*
X8098028Y4450842D01*
X8099907Y4453229D01*
X8102396Y4454804D01*
X8105546Y4455769D01*
X8109508Y4456226D01*
X8120075Y4456480D01*
X8125866Y4456125D01*
X8131302Y4455109D01*
X8136483Y4453432D01*
X8141258Y4451197D01*
X8145729Y4448454D01*
X8149793Y4445254D01*
X8153450Y4441596D01*
X8156702Y4437583D01*
X8159496Y4433265D01*
X8161781Y4428642D01*
X8163610Y4423765D01*
X8164931Y4418736D01*
X8165744Y4413605D01*
X8165947Y4408373D01*
X8165592Y4403090D01*
X8164677Y4397857D01*
X8163102Y4392676D01*
X8160867Y4387596D01*
X8158022Y4382719D01*
X8154466Y4377994D01*
X8150402Y4373676D01*
X8146237Y4370070D01*
X8142071Y4367174D01*
X8137906Y4364990D01*
X8133791Y4363466D01*
X8129727Y4362653D01*
X8125714Y4362450D01*
X8121853Y4362907D01*
X8118144Y4363974D01*
X8114588Y4365650D01*
X8111236Y4367885D01*
X8108086Y4370730D01*
X8105241Y4374083D01*
X8102650Y4377994D01*
X8100415Y4382465D01*
X8098485Y4387392D01*
X8096961Y4392828D01*
X8095843Y4398721D01*
X8095132Y4405071D01*
X8094878Y4411878D01*
X8068157Y4411878D01*
X8068157Y4349496D01*
X8114893Y4349750D01*
X8122818Y4350105D01*
X8130184Y4350715D01*
X8136940Y4351578D01*
X8143189Y4352696D01*
X8148878Y4354118D01*
X8154060Y4355795D01*
X8158734Y4357827D01*
X8162899Y4360164D01*
X8166658Y4362856D01*
X8169960Y4365904D01*
X8172856Y4369358D01*
X8175294Y4373168D01*
X8177377Y4377385D01*
X8179104Y4382008D01*
X8180425Y4387037D01*
X8181492Y4392574D01*
X8182203Y4398518D01*
X8182609Y4404969D01*
X8182609Y4418838D01*
X8182203Y4425289D01*
X8181492Y4431233D01*
X8180425Y4436719D01*
X8179104Y4441799D01*
X8177377Y4446422D01*
X8175294Y4450638D01*
X8172856Y4454448D01*
X8169960Y4457852D01*
X8166658Y4460900D01*
X8162899Y4463592D01*
X8158734Y4465929D01*
X8154060Y4467961D01*
X8148878Y4469688D01*
X8143189Y4471060D01*
X8136940Y4472178D01*
X8130184Y4473041D01*
X8122818Y4473651D01*
X8106359Y4474159D01*
G37*
G36*
X7982712Y4474260D02*
G01*
X7977327Y4474108D01*
X7972094Y4473549D01*
X7967065Y4472635D01*
X7962239Y4471365D01*
X7957616Y4469841D01*
X7953197Y4467961D01*
X7948980Y4465828D01*
X7944967Y4463440D01*
X7941157Y4460798D01*
X7934299Y4454855D01*
X7931251Y4451604D01*
X7928406Y4448149D01*
X7925816Y4444542D01*
X7921447Y4436973D01*
X7919669Y4433011D01*
X7916925Y4424883D01*
X7915351Y4416552D01*
X7915040Y4411878D01*
X7942122Y4411878D01*
X7942376Y4418736D01*
X7943138Y4425035D01*
X7944459Y4430826D01*
X7946237Y4436059D01*
X7948523Y4440732D01*
X7951317Y4444847D01*
X7954568Y4448352D01*
X7958277Y4451197D01*
X7962442Y4453483D01*
X7967014Y4455109D01*
X7972044Y4456125D01*
X7977479Y4456480D01*
X7982610Y4456125D01*
X7987487Y4455109D01*
X7992059Y4453534D01*
X7996275Y4451350D01*
X8000238Y4448708D01*
X8003794Y4445558D01*
X8006994Y4442053D01*
X8009839Y4438142D01*
X8012226Y4433976D01*
X8014208Y4429506D01*
X8015782Y4424832D01*
X8016849Y4420006D01*
X8017459Y4415028D01*
X8017560Y4409998D01*
X8017103Y4404969D01*
X8016138Y4399991D01*
X8014614Y4395063D01*
X8012480Y4390288D01*
X8009788Y4385716D01*
X8006486Y4381347D01*
X8002524Y4377182D01*
X7998409Y4373727D01*
X7994192Y4370984D01*
X7989925Y4368901D01*
X7985556Y4367479D01*
X7981238Y4366717D01*
X7976920Y4366514D01*
X7972704Y4366920D01*
X7968589Y4367936D01*
X7964627Y4369511D01*
X7960868Y4371594D01*
X7957362Y4374235D01*
X7954111Y4377334D01*
X7951165Y4380992D01*
X7948523Y4385056D01*
X7946339Y4389577D01*
X7944510Y4394555D01*
X7943189Y4399940D01*
X7942376Y4405731D01*
X7942122Y4411878D01*
X7915040Y4411878D01*
X7914995Y4408119D01*
X7915249Y4403953D01*
X7915859Y4399838D01*
X7916773Y4395774D01*
X7918043Y4391812D01*
X7919618Y4387900D01*
X7921548Y4384090D01*
X7923834Y4380433D01*
X7926476Y4376928D01*
X7929422Y4373575D01*
X7932775Y4370425D01*
X7936534Y4367479D01*
X7940649Y4364736D01*
X7945120Y4362246D01*
X7951165Y4359402D01*
X7957210Y4357065D01*
X7963204Y4355236D01*
X7969148Y4353864D01*
X7974939Y4353001D01*
X7980680Y4352594D01*
X7986268Y4352594D01*
X7991703Y4353102D01*
X7996936Y4353966D01*
X8002016Y4355287D01*
X8006842Y4357014D01*
X8011464Y4359148D01*
X8015833Y4361688D01*
X8019948Y4364532D01*
X8023758Y4367834D01*
X8027263Y4371441D01*
X8030413Y4375404D01*
X8033207Y4379671D01*
X8035594Y4384294D01*
X8037626Y4389221D01*
X8039252Y4394454D01*
X8040420Y4399991D01*
X8041182Y4405782D01*
X8041386Y4411878D01*
X8041081Y4417517D01*
X8040014Y4423156D01*
X8038388Y4428744D01*
X8036204Y4434281D01*
X8033461Y4439615D01*
X8030260Y4444796D01*
X8026653Y4449724D01*
X8022640Y4454296D01*
X8018272Y4458563D01*
X8013649Y4462424D01*
X8008823Y4465828D01*
X8003743Y4468723D01*
X7998561Y4471111D01*
X7993329Y4472838D01*
X7987995Y4473905D01*
G37*
D17*
X8234679Y255523D02*
G01*
X8234679Y333502D01*
X8239759Y348995D01*
X8250174Y359410D01*
X8265922Y364489D01*
X8276336Y364489D01*
X8291829Y359410D01*
X8302243Y348995D01*
X8307324Y333502D01*
X8307324Y255523D01*
X8341613Y276352D02*
G01*
X8352027Y271018D01*
X8367775Y255523D01*
X8367775Y364489D01*
X7650482Y2499865D02*
G01*
X7650482Y2596893D01*
X7650482Y2499865D02*
G01*
X7710426Y2499865D01*
X7650482Y2546093D02*
G01*
X7687312Y2546093D01*
X7650482Y2596893D02*
G01*
X7710426Y2596893D01*
X7805676Y2513581D02*
G01*
X7796532Y2504437D01*
X7782562Y2499865D01*
X7764020Y2499865D01*
X7750304Y2504437D01*
X7740906Y2513581D01*
X7740906Y2522979D01*
X7745732Y2532123D01*
X7750304Y2536695D01*
X7759448Y2541267D01*
X7787134Y2550665D01*
X7796532Y2555237D01*
X7801104Y2559809D01*
X7805676Y2569207D01*
X7805676Y2582923D01*
X7796532Y2592067D01*
X7782562Y2596893D01*
X7764020Y2596893D01*
X7750304Y2592067D01*
X7740906Y2582923D01*
X7836156Y2499865D02*
G01*
X7836156Y2596893D01*
X7836156Y2499865D02*
G01*
X7877812Y2499865D01*
X7891528Y2504437D01*
X7896100Y2509009D01*
X7900672Y2518407D01*
X7900672Y2532123D01*
X7896100Y2541267D01*
X7891528Y2546093D01*
X7877812Y2550665D01*
X7836156Y2550665D01*
X7931152Y2555237D02*
G01*
X8014464Y2555237D01*
X8044944Y2499865D02*
G01*
X8068058Y2596893D01*
X8091172Y2499865D02*
G01*
X8068058Y2596893D01*
X8091172Y2499865D02*
G01*
X8114032Y2596893D01*
X8137146Y2499865D02*
G01*
X8114032Y2596893D01*
X8167626Y2499865D02*
G01*
X8167626Y2596893D01*
X8167626Y2499865D02*
G01*
X8209282Y2499865D01*
X8223252Y2504437D01*
X8227824Y2509009D01*
X8232396Y2518407D01*
X8232396Y2527551D01*
X8227824Y2536695D01*
X8223252Y2541267D01*
X8209282Y2546093D01*
X8167626Y2546093D01*
X8200138Y2546093D02*
G01*
X8232396Y2596893D01*
X8290562Y2499865D02*
G01*
X8281418Y2504437D01*
X8272020Y2513581D01*
X8267448Y2522979D01*
X8262876Y2536695D01*
X8262876Y2559809D01*
X8267448Y2573779D01*
X8272020Y2582923D01*
X8281418Y2592067D01*
X8290562Y2596893D01*
X8309104Y2596893D01*
X8318248Y2592067D01*
X8327392Y2582923D01*
X8332218Y2573779D01*
X8336790Y2559809D01*
X8336790Y2536695D01*
X8332218Y2522979D01*
X8327392Y2513581D01*
X8318248Y2504437D01*
X8309104Y2499865D01*
X8290562Y2499865D01*
X8394956Y2499865D02*
G01*
X8385812Y2504437D01*
X8376414Y2513581D01*
X8371842Y2522979D01*
X8367270Y2536695D01*
X8367270Y2559809D01*
X8371842Y2573779D01*
X8376414Y2582923D01*
X8385812Y2592067D01*
X8394956Y2596893D01*
X8413498Y2596893D01*
X8422642Y2592067D01*
X8431786Y2582923D01*
X8436612Y2573779D01*
X8441184Y2559809D01*
X8441184Y2536695D01*
X8436612Y2522979D01*
X8431786Y2513581D01*
X8422642Y2504437D01*
X8413498Y2499865D01*
X8394956Y2499865D01*
X8471664Y2499865D02*
G01*
X8471664Y2596893D01*
X8471664Y2499865D02*
G01*
X8508494Y2596893D01*
X8545578Y2499865D02*
G01*
X8508494Y2596893D01*
X8545578Y2499865D02*
G01*
X8545578Y2596893D01*
X8576058Y2555237D02*
G01*
X8659116Y2555237D01*
X8698740Y2499865D02*
G01*
X8749540Y2499865D01*
X8721854Y2536695D01*
X8735824Y2536695D01*
X8744968Y2541267D01*
X8749540Y2546093D01*
X8754112Y2559809D01*
X8754112Y2569207D01*
X8749540Y2582923D01*
X8740396Y2592067D01*
X8726426Y2596893D01*
X8712710Y2596893D01*
X8698740Y2592067D01*
X8694168Y2587495D01*
X8689596Y2578351D01*
X8789418Y2522979D02*
G01*
X8789418Y2518407D01*
X8793990Y2509009D01*
X8798562Y2504437D01*
X8807706Y2499865D01*
X8826248Y2499865D01*
X8835392Y2504437D01*
X8840218Y2509009D01*
X8844790Y2518407D01*
X8844790Y2527551D01*
X8840218Y2536695D01*
X8830820Y2550665D01*
X8784592Y2596893D01*
X8849362Y2596893D01*
D19*
X9165404Y4863592D02*
G01*
X9238142Y4863592D01*
X9165404Y4863592D02*
G01*
X9165404Y4839347D01*
X9168869Y4828956D01*
X9175795Y4822027D01*
X9182722Y4818565D01*
X9193113Y4815100D01*
X9210433Y4815100D01*
X9220822Y4818565D01*
X9227751Y4822027D01*
X9234677Y4828956D01*
X9238142Y4839347D01*
X9238142Y4863592D01*
X9210433Y4792240D02*
G01*
X9210433Y4750676D01*
X9203504Y4750676D01*
X9196577Y4754140D01*
X9193113Y4757605D01*
X9189651Y4764531D01*
X9189651Y4774923D01*
X9193113Y4781849D01*
X9200042Y4788776D01*
X9210433Y4792240D01*
X9217360Y4792240D01*
X9227751Y4788776D01*
X9234677Y4781849D01*
X9238142Y4774923D01*
X9238142Y4764531D01*
X9234677Y4757605D01*
X9227751Y4750676D01*
X9200042Y4689716D02*
G01*
X9193113Y4693180D01*
X9189651Y4703571D01*
X9189651Y4713963D01*
X9193113Y4724354D01*
X9200042Y4727816D01*
X9206969Y4724354D01*
X9210433Y4717427D01*
X9213895Y4700107D01*
X9217360Y4693180D01*
X9224286Y4689716D01*
X9227751Y4689716D01*
X9234677Y4693180D01*
X9238142Y4703571D01*
X9238142Y4713963D01*
X9234677Y4724354D01*
X9227751Y4727816D01*
X9165404Y4666856D02*
G01*
X9168869Y4663394D01*
X9165404Y4659929D01*
X9161942Y4663394D01*
X9165404Y4666856D01*
X9189651Y4663394D02*
G01*
X9238142Y4663394D01*
X9189651Y4595507D02*
G01*
X9245069Y4595507D01*
X9255460Y4598969D01*
X9258922Y4602434D01*
X9262386Y4609360D01*
X9262386Y4619752D01*
X9258922Y4626678D01*
X9200042Y4595507D02*
G01*
X9193113Y4602434D01*
X9189651Y4609360D01*
X9189651Y4619752D01*
X9193113Y4626678D01*
X9200042Y4633607D01*
X9210433Y4637069D01*
X9217360Y4637069D01*
X9227751Y4633607D01*
X9234677Y4626678D01*
X9238142Y4619752D01*
X9238142Y4609360D01*
X9234677Y4602434D01*
X9227751Y4595507D01*
X9189651Y4572647D02*
G01*
X9238142Y4572647D01*
X9203504Y4572647D02*
G01*
X9193113Y4562256D01*
X9189651Y4555327D01*
X9189651Y4544936D01*
X9193113Y4538009D01*
X9203504Y4534547D01*
X9238142Y4534547D01*
X9210433Y4511687D02*
G01*
X9210433Y4470123D01*
X9203504Y4470123D01*
X9196577Y4473587D01*
X9193113Y4477049D01*
X9189651Y4483976D01*
X9189651Y4494367D01*
X9193113Y4501296D01*
X9200042Y4508223D01*
X9210433Y4511687D01*
X9217360Y4511687D01*
X9227751Y4508223D01*
X9234677Y4501296D01*
X9238142Y4494367D01*
X9238142Y4483976D01*
X9234677Y4477049D01*
X9227751Y4470123D01*
X9165404Y4405698D02*
G01*
X9238142Y4405698D01*
X9200042Y4405698D02*
G01*
X9193113Y4412627D01*
X9189651Y4419554D01*
X9189651Y4429945D01*
X9193113Y4436871D01*
X9200042Y4443798D01*
X9210433Y4447263D01*
X9217360Y4447263D01*
X9227751Y4443798D01*
X9234677Y4436871D01*
X9238142Y4429945D01*
X9238142Y4419554D01*
X9234677Y4412627D01*
X9227751Y4405698D01*
X9165404Y4329498D02*
G01*
X9238142Y4329498D01*
X9200042Y4329498D02*
G01*
X9193113Y4322571D01*
X9189651Y4315645D01*
X9189651Y4305254D01*
X9193113Y4298327D01*
X9200042Y4291398D01*
X9210433Y4287936D01*
X9217360Y4287936D01*
X9227751Y4291398D01*
X9234677Y4298327D01*
X9238142Y4305254D01*
X9238142Y4315645D01*
X9234677Y4322571D01*
X9227751Y4329498D01*
X9189651Y4261612D02*
G01*
X9238142Y4240829D01*
X9189651Y4220047D02*
G01*
X9238142Y4240829D01*
X9251995Y4247756D01*
X9258922Y4254685D01*
X9262386Y4261612D01*
X9262386Y4265076D01*
X9165404Y4116138D02*
G01*
X9238142Y4143847D01*
X9165404Y4116138D02*
G01*
X9238142Y4088429D01*
X9213895Y4133456D02*
G01*
X9213895Y4098820D01*
X9189651Y4065569D02*
G01*
X9238142Y4065569D01*
X9203504Y4065569D02*
G01*
X9193113Y4055178D01*
X9189651Y4048252D01*
X9189651Y4037860D01*
X9193113Y4030934D01*
X9203504Y4027469D01*
X9238142Y4027469D01*
X9189651Y4004609D02*
G01*
X9224286Y4004609D01*
X9234677Y4001147D01*
X9238142Y3994218D01*
X9238142Y3983827D01*
X9234677Y3976900D01*
X9224286Y3966509D01*
X9189651Y3966509D02*
G01*
X9238142Y3966509D01*
X9200042Y3902087D02*
G01*
X9193113Y3909014D01*
X9189651Y3915940D01*
X9189651Y3926331D01*
X9193113Y3933258D01*
X9200042Y3940187D01*
X9210433Y3943649D01*
X9217360Y3943649D01*
X9227751Y3940187D01*
X9234677Y3933258D01*
X9238142Y3926331D01*
X9238142Y3915940D01*
X9234677Y3909014D01*
X9227751Y3902087D01*
X9165404Y3879227D02*
G01*
X9238142Y3879227D01*
X9203504Y3879227D02*
G01*
X9193113Y3868836D01*
X9189651Y3861907D01*
X9189651Y3851516D01*
X9193113Y3844589D01*
X9203504Y3841127D01*
X9238142Y3841127D01*
X9165404Y3818267D02*
G01*
X9168869Y3814803D01*
X9165404Y3811338D01*
X9161942Y3814803D01*
X9165404Y3818267D01*
X9189651Y3814803D02*
G01*
X9238142Y3814803D01*
X9165404Y3778087D02*
G01*
X9224286Y3778087D01*
X9234677Y3774625D01*
X9238142Y3767696D01*
X9238142Y3760769D01*
X9189651Y3788478D02*
G01*
X9189651Y3764234D01*
D10*
X7907020Y5297642D02*
G01*
X7907020Y4797262D01*
X8648700Y4797262D01*
X8648700Y5297642D01*
X7909559Y5234142D02*
G01*
X8646159Y5234142D01*
X7947659Y4797262D02*
G01*
X7907020Y4797262D01*
X7907020Y4952202D01*
X8597900Y4797262D02*
G01*
X8648700Y4797262D01*
X8648700Y4962362D01*
X7907020Y5201122D02*
G01*
X7907020Y5292562D01*
X8648700Y5201122D02*
G01*
X8648700Y5292562D01*
X7947659Y5302722D02*
G01*
X7932064Y5299242D01*
X7932064Y5299242D02*
G01*
X7907020Y5300182D01*
X8648700Y5297642D02*
G01*
X8622944Y5299242D01*
X8622944Y5299242D02*
G01*
X8610600Y5300182D01*
X7982864Y5337342D02*
G01*
X8572144Y5337342D01*
X7982864Y5357662D02*
G01*
X8572144Y5357662D01*
X7967624Y5319562D02*
G01*
X7967624Y5322102D01*
X7967624Y5322102D02*
G01*
X7967624Y5342422D01*
X8587384Y5319562D02*
G01*
X8587384Y5322102D01*
X8587384Y5322102D02*
G01*
X8587384Y5342422D01*
X7909559Y5300182D02*
G01*
X7884159Y5343362D01*
X7881620Y5345902D02*
G01*
X7901584Y5357662D01*
X7901584Y5357662D02*
G01*
X7929524Y5311942D01*
X8646159Y5300182D02*
G01*
X8671559Y5343362D01*
X8671559Y5345902D02*
G01*
X8653424Y5357662D01*
X8653424Y5357662D02*
G01*
X8625484Y5314482D01*
X7571740Y4792182D02*
G01*
X7571740Y4741382D01*
X7724140Y4741382D01*
X7724140Y4785360D01*
X7520940Y5147782D02*
G01*
X7774940Y5147782D01*
X7774940Y4792182D01*
X7520940Y4792182D01*
X7520940Y5147782D01*
X7571740Y5147782D01*
X7571740Y5198582D01*
X7724140Y5198582D01*
X7724140Y5147782D01*
X8826500Y4792182D02*
G01*
X8826500Y4741382D01*
X8978900Y4741382D01*
X8978900Y4782820D01*
X8775700Y5147782D02*
G01*
X9029700Y5147782D01*
X9029700Y4792182D01*
X8775700Y4792182D01*
X8775700Y5147782D01*
X8826500Y5147782D01*
X8826500Y5198582D01*
X8978900Y5198582D01*
X8978900Y5147782D01*
X7345936Y445000D02*
G01*
X7345936Y1795010D01*
X7345936Y2994906D01*
X7345936Y2994906D02*
G01*
X9146034Y2994906D01*
X7345936Y445000D02*
G01*
X9146034Y445000D01*
X9146034Y445000D02*
G01*
X9146034Y2994906D01*
X7345936Y1044948D02*
G01*
X8945882Y1044948D01*
X9146034Y1044948D01*
D18*
X9001762Y993640D02*
G01*
X9001762Y531360D01*
X8458202Y531360D01*
X8458202Y790440D01*
X8199122Y790440D01*
X8199122Y531360D01*
X7945122Y531360D01*
X7945122Y790440D01*
X7703822Y790440D01*
X7703822Y531360D01*
X7500622Y531360D01*
X7500622Y993640D01*
X8735062Y1001260D02*
G01*
X8735062Y532630D01*
D10*
X7493002Y1298440D02*
G01*
X7493002Y2822440D01*
X9017002Y2822440D01*
X9017002Y1298440D01*
X7493002Y1298440D01*
X7085002Y408942D02*
G01*
X9424997Y408942D01*
X9524997Y508942D02*
G01*
X9524997Y5134935D01*
X9424997Y5234934D02*
G01*
X7085002Y5234934D01*
X6985002Y5134935D02*
G01*
X6985002Y508942D01*
G75*
G01*
X7924800Y5300182D02*
G03*
X7969250Y5315676I6997J51434D01*
G75*
G01*
X7969250Y5320248D02*
G02*
X7984490Y5334726I15002J-531D01*
G75*
G01*
X7969250Y5340822D02*
G02*
X7984490Y5356316I15004J485D01*
G75*
G01*
X8574024Y5356316D02*
G02*
X8589264Y5340822I236J-15009D01*
G75*
G01*
X8574024Y5334726D02*
G02*
X8589264Y5320248I238J-15009D01*
G75*
G01*
X8589264Y5315676D02*
G03*
X8628380Y5300182I32959J26085D01*
G75*
G01*
X7930896Y5310342D02*
G02*
X7934960Y5300182I-11596J-10531D01*
G75*
G01*
X8628126Y5310850D02*
G03*
X8625840Y5300182I13209J-8409D01*
G75*
G01*
X9424998Y408943D02*
G03*
X9524997Y508942I0J99999D01*
G75*
G01*
X9524997Y5134935D02*
G03*
X9424998Y5234935I-99999J0D01*
G75*
G01*
X7085002Y5234935D02*
G03*
X6985003Y5134935I0J-100000D01*
G75*
G01*
X6985003Y508942D02*
G03*
X7085002Y408943I99999J0D01*
G75*
G01
X7647940Y4982693D02*
G03X7647940Y4982693I-12700J0D01*
G75*
G01
X7673340Y4957293D02*
G03X7673340Y4957293I-12700J0D01*
G75*
G01
X7673340Y4969993D02*
G03X7673340Y4969993I-25400J0D01*
G75*
G01
X7698740Y4969993D02*
G03X7698740Y4969993I-50800J0D01*
G75*
G01
X7724140Y4969993D02*
G03X7724140Y4969993I-76200J0D01*
G75*
G01
X8902700Y4982693D02*
G03X8902700Y4982693I-12700J0D01*
G75*
G01
X8928100Y4957293D02*
G03X8928100Y4957293I-12700J0D01*
G75*
G01
X8928100Y4969993D02*
G03X8928100Y4969993I-25400J0D01*
G75*
G01
X8953500Y4969993D02*
G03X8953500Y4969993I-50800J0D01*
G75*
G01
X8978900Y4969993D02*
G03X8978900Y4969993I-76200J0D01*
M02*
