M48
METRIC,LZ,0000.00
;FILE_FORMAT=4:2
;TYPE=PLATED
;Layer: Drill PTH
;EasyEDA v6.4.14, 2021-02-05T01:12:07+07:00
;a11fb1351f8b4d80ab88c56e364234f4,ed1066999ab64682bb259e5b7afb0417,10
;Gerber Generator version 0.2
;Holesize 1 = 0.310 mm
T01C0.310
;Holesize 2 = 0.915 mm
T02C0.915
;Holesize 3 = 1.200 mm
T03C1.200
%
G05
G90
T01
X006545Y002566
X006646Y003578
T02
X007112Y000533
X007112Y000787
X007112Y001041
X007112Y001295
X007112Y001549
X007112Y001803
X007112Y002057
X007112Y002311
X007112Y002565
X007112Y002819
X007112Y003073
X007112Y003327
X007112Y003581
X007112Y003835
X007112Y004089
X007112Y004343
X007112Y004597
X007112Y004851
X007112Y005105
X009398Y005105
X009398Y004851
X009398Y004597
X009398Y004343
X009398Y004089
X009398Y003835
X009398Y003581
X009398Y003327
X009398Y003073
X009398Y002819
X009398Y002565
X009398Y002311
X009398Y002057
X009398Y001803
X009398Y001549
X009398Y001295
X009398Y001041
X009398Y000787
X009398Y000533
T03
X001507Y004702G85X001507Y004701
X001007Y004702G85X001007Y004701
X001007Y003452G85X001007Y003451
X001507Y003452G85X001507Y003451
X003793Y004702G85X003793Y004701
X003293Y004702G85X003293Y004701
X003293Y003452G85X003293Y003451
X003793Y003452G85X003793Y003451
X006333Y004702G85X006333Y004701
X005833Y004702G85X005833Y004701
X005833Y003452G85X005833Y003451
X006333Y003452G85X006333Y003451
X008873Y004702G85X008873Y004701
X008373Y004702G85X008373Y004701
X008373Y003452G85X008373Y003451
X008873Y003452G85X008873Y003451
X003293Y001165G85X003293Y001166
X003793Y001165G85X003793Y001166
X003793Y002415G85X003793Y002416
X003293Y002415G85X003293Y002416
X001007Y001165G85X001007Y001166
X001507Y001165G85X001507Y001166
X001507Y002415G85X001507Y002416
X001007Y002415G85X001007Y002416
X005833Y001165G85X005833Y001166
X006333Y001165G85X006333Y001166
X006333Y002415G85X006333Y002416
X005833Y002415G85X005833Y002416
X008373Y001165G85X008373Y001166
X008873Y001165G85X008873Y001166
X008873Y002415G85X008873Y002416
X008373Y002415G85X008373Y002416
M30
