G04 Layer: TopLayer*
G04 EasyEDA v6.4.14, 2021-02-05T01:12:07+07:00*
G04 a11fb1351f8b4d80ab88c56e364234f4,ed1066999ab64682bb259e5b7afb0417,10*
G04 Gerber Generator version 0.2*
G04 Scale: 100 percent, Rotated: No, Reflected: No *
G04 Dimensions in millimeters *
G04 leading zeros omitted , absolute positions ,4 integer and 5 decimal *
%FSLAX45Y45*%
%MOMM*%

%ADD11C,0.2600*%
%ADD12C,0.6100*%
%ADD13C,2.1590*%
%ADD14C,1.5240*%

%LPD*%
D11*
X9398000Y2311400D02*
G01*
X9342120Y2255265D01*
X8533638Y2255265D01*
X8373363Y2415794D01*
X7112000Y4089400D02*
G01*
X1924050Y4089400D01*
X1007363Y3172713D01*
X1007363Y2415794D01*
X3293363Y2415794D02*
G01*
X3443477Y2565654D01*
X6545072Y2565654D01*
X7112000Y2565400D02*
G01*
X7987029Y2565400D01*
X8873236Y3451605D01*
X1507236Y3451605D02*
G01*
X2275586Y2683510D01*
X6529831Y2683510D01*
X6774941Y2438400D01*
X7933943Y2438400D01*
X8060943Y2565400D01*
X9398000Y2565400D01*
X8373363Y3451605D02*
G01*
X8129015Y3207512D01*
X6077458Y3207512D01*
X5833363Y3451605D01*
X5833363Y3451605D02*
G01*
X5686043Y3304539D01*
X3440429Y3304539D01*
X3293363Y3451605D01*
X3793236Y2415794D02*
G01*
X3625595Y2248154D01*
X1674875Y2248154D01*
X1507236Y2415794D01*
X7112000Y3581400D02*
G01*
X6649465Y3581400D01*
X6645909Y3577844D01*
X7112000Y3581400D02*
G01*
X6649465Y3581400D01*
X6645909Y3577844D01*
D13*
G01*
X1507286Y4701692D03*
G01*
X1007313Y4701692D03*
G01*
X1007313Y3451707D03*
G01*
X1507286Y3451707D03*
G01*
X3793286Y4701692D03*
G01*
X3293313Y4701692D03*
G01*
X3293313Y3451707D03*
G01*
X3793286Y3451707D03*
G01*
X6333286Y4701692D03*
G01*
X5833313Y4701692D03*
G01*
X5833313Y3451707D03*
G01*
X6333286Y3451707D03*
G01*
X8873286Y4701692D03*
G01*
X8373313Y4701692D03*
G01*
X8373313Y3451707D03*
G01*
X8873286Y3451707D03*
G01*
X3293313Y1165707D03*
G01*
X3793286Y1165707D03*
G01*
X3793286Y2415692D03*
G01*
X3293313Y2415692D03*
G01*
X1007313Y1165707D03*
G01*
X1507286Y1165707D03*
G01*
X1507286Y2415692D03*
G01*
X1007313Y2415692D03*
G01*
X5833313Y1165707D03*
G01*
X6333286Y1165707D03*
G01*
X6333286Y2415692D03*
G01*
X5833313Y2415692D03*
G01*
X8373313Y1165707D03*
G01*
X8873286Y1165707D03*
G01*
X8873286Y2415692D03*
G01*
X8373313Y2415692D03*
D14*
G01*
X7112000Y533400D03*
G01*
X7112000Y787400D03*
G01*
X7112000Y1041400D03*
G01*
X7112000Y1295400D03*
G01*
X7112000Y1549400D03*
G01*
X7112000Y1803400D03*
G01*
X7112000Y2057400D03*
G01*
X7112000Y2311400D03*
G01*
X7112000Y2565400D03*
G01*
X7112000Y2819400D03*
G01*
X7112000Y3073400D03*
G01*
X7112000Y3327400D03*
G01*
X7112000Y3581400D03*
G01*
X7112000Y3835400D03*
G01*
X7112000Y4089400D03*
G01*
X7112000Y4343400D03*
G01*
X7112000Y4597400D03*
G01*
X7112000Y4851400D03*
G01*
X7112000Y5105400D03*
G01*
X9398000Y5105400D03*
G01*
X9398000Y4851400D03*
G01*
X9398000Y4597400D03*
G01*
X9398000Y4343400D03*
G01*
X9398000Y4089400D03*
G01*
X9398000Y3835400D03*
G01*
X9398000Y3581400D03*
G01*
X9398000Y3327400D03*
G01*
X9398000Y3073400D03*
G01*
X9398000Y2819400D03*
G01*
X9398000Y2565400D03*
G01*
X9398000Y2311400D03*
G01*
X9398000Y2057400D03*
G01*
X9398000Y1803400D03*
G01*
X9398000Y1549400D03*
G01*
X9398000Y1295400D03*
G01*
X9398000Y1041400D03*
G01*
X9398000Y787400D03*
G01*
X9398000Y533400D03*
D12*
G01*
X6545072Y2565654D03*
G01*
X6645909Y3577844D03*
M02*
